<svg width="1000" height="3200" viewBox="0 0 1000 3200" fill="none" xmlns="http://www.w3.org/2000/svg">
<path d="M709.65 1115.36L860.31 1015.74C860.31 1015.74 856.1 981.55 837.15 910.78C819.51 844.92 764.21 726.96 764.21 726.96L762.69 726.93C745.67 689.64 724 673.08 686.83 657.28C656.77 644.5 620.32 628.1 591.44 613C568.14 639.29 533.65 655.52 498.53 656.6C463.41 655.53 428.92 639.29 405.61 613C376.73 628.1 340.28 644.5 310.22 657.28C265.44 676.31 243.15 696.46 224.39 752.61C224.39 752.63 224.38 752.64 224.38 752.66C202.17 804.79 175.67 864.05 163.16 910.78C144.21 981.55 140 1015.74 140 1015.74L290.65 1115.36L313.78 1084.52C313.78 1084.52 255.05 1360.13 230.72 1504.67L497.5 1516.05L500.15 1516.17L502.8 1516.05L769.58 1504.67C745.26 1360.13 686.53 1084.52 686.53 1084.52L709.65 1115.36ZM498.23 721.07L500.16 721.11L502.08 721.07V721.16L500.16 721.11L498.23 721.16V721.07Z" fill="white"/>
</svg>
