<svg width="1000" height="3200" viewBox="0 0 1000 3200" fill="none" xmlns="http://www.w3.org/2000/svg">
<path d="M771.83 1554.06L773.14 1562.31C773.13 1562.59 771.97 1562.71 767.71 1563.04L498.04 1575.09L495.36 1575.22L492.68 1575.09L223.02 1563.04C247.61 1410.01 279.75 1204.76 279.75 1204.76L266.67 1200.62L102 1147.02C102 1147.02 135.57 1009.18 154.73 934.25C164.82 894.75 183.74 847.39 202.39 801.82C202.71 801.02 203.04 800.22 203.37 799.42C204.05 797.76 204.73 796.1 205.4 794.44C206.39 792.02 207.37 789.63 208.34 787.3C208.55 786.79 208.76 786.28 208.97 785.77C211.43 779.72 213.89 773.72 216.3 767.8C216.3 767.78 216.62 766.81 216.62 766.79C226.32 736.37 236.96 715.92 251.1 700.52C265.81 680.72 284.45 668.61 310.78 656.88C341.17 643.35 378.01 625.99 407.2 610C430.76 637.84 465.62 655.02 501.12 656.16C536.62 655.03 571.48 637.84 595.05 610C624.24 625.99 661.08 643.35 691.47 656.88C736.73 677.03 759.26 698.37 778.23 757.81C778.23 757.84 778.54 758.8 778.54 758.82C800.99 814.01 827.47 875.8 840.12 925.28C859.27 1000.21 892.84 1138.05 892.84 1138.05L728.17 1191.64L715.1 1195.78C715.1 1195.78 747.24 1401.03 771.83 1554.06Z" fill="white"/>
</svg>
