<svg width="1000" height="3200" viewBox="0 0 1000 3200" fill="none" xmlns="http://www.w3.org/2000/svg">
<path d="M904.065 3046.91C902.845 3048.37 900.705 3048.53 898.815 3048.58C829.455 3050.31 760.105 3052.04 696.845 3050.46C696.865 3050.4 696.885 3050.33 696.925 3050.28C702.765 3035.55 708.725 3020.65 716.625 3006.95C719.745 3001.48 723.225 2996.2 727.095 2991.2C740.745 2973.62 760.585 2959.6 782.795 2958.13C798.075 2957.13 813.155 2962.08 827.065 2968.49C859.485 2983.41 888.765 3007.64 903.715 3040.06C904.725 3042.24 905.595 3045.03 904.065 3046.91Z" fill="white"/>
<path d="M716.625 3006.94C708.725 3020.64 702.765 3035.54 696.925 3050.27C670.055 3050.33 643.175 3048.94 616.465 3046.14C610.755 3041.26 611.675 3027.3 614.775 3020.44C617.875 3013.6 623.405 3011.77 630.455 3009.14C637.505 3006.53 654.105 3005.04 661.625 3004.54C683.255 3003.09 694.975 3005.72 716.625 3006.94Z" fill="#515151"/>
<path d="M94.9853 3046.91C96.2053 3048.37 98.3453 3048.53 100.235 3048.58C169.595 3050.31 238.945 3052.04 302.205 3050.46C302.185 3050.4 302.165 3050.33 302.125 3050.28C296.285 3035.55 290.325 3020.65 282.425 3006.95C279.305 3001.48 275.825 2996.2 271.955 2991.2C258.305 2973.62 238.465 2959.6 216.255 2958.13C200.975 2957.13 185.895 2962.08 171.985 2968.49C139.565 2983.41 110.285 3007.64 95.3353 3040.06C94.3253 3042.24 93.4553 3045.03 94.9853 3046.91Z" fill="white"/>
<path d="M282.425 3006.94C290.325 3020.64 296.285 3035.54 302.125 3050.27C328.995 3050.33 355.875 3048.94 382.585 3046.14C388.295 3041.26 387.375 3027.3 384.275 3020.44C381.175 3013.6 375.645 3011.77 368.595 3009.14C361.545 3006.53 344.945 3005.04 337.425 3004.54C315.795 3003.09 304.075 3005.72 282.425 3006.94Z" fill="#515151"/>
</svg>
