<svg width="1000" height="3200" viewBox="0 0 1000 3200" fill="none" xmlns="http://www.w3.org/2000/svg">
<path d="M673.329 320.182C667.839 319.712 662.299 319.892 656.859 320.712C656.849 320.712 656.849 320.712 656.839 320.722C654.159 321.112 651.519 321.662 648.909 322.362C647.189 322.502 645.559 322.472 643.979 322.312C619.859 280.542 584.329 242.012 539.329 225.462C522.579 219.312 504.689 215.282 486.909 216.922C468.019 218.652 450.189 226.682 434.259 236.982C401.749 258.012 375.819 289.092 360.969 324.852C360.779 324.902 360.589 324.952 360.399 325.002C354.309 321.042 346.409 319.222 338.599 319.722C337.879 319.772 337.149 319.832 336.429 319.922C330.599 320.622 328.939 319.642 323.959 322.742C319.339 301.892 322.219 283.012 325.989 261.952C330.979 234.032 342.619 207.522 358.339 183.912C372.399 162.812 387.869 146.782 408.809 132.472C430.599 117.582 456.979 108.752 483.489 105.742C488.869 105.112 494.259 104.742 499.619 104.602C505.259 104.462 510.709 104.482 516.019 104.732C540.569 105.862 562.179 111.672 586.699 127.012C618.959 146.922 645.169 176.482 661.079 210.892C676.539 244.332 682.219 282.222 673.329 320.182Z" fill="white"/>
<path d="M644.779 322.462C640.949 322.072 637.439 320.922 633.869 319.392C633.389 319.182 632.909 318.972 632.419 318.752C624.749 315.272 617.329 308.602 610.919 303.142C591.609 286.692 570.949 271.342 547.479 261.722C524.009 252.112 493.329 248.102 469.099 255.612C442.359 263.912 414.979 295.852 391.869 311.672C381.609 318.712 373.769 321.732 365.299 324.072C364.139 324.392 362.959 324.702 361.769 325.002C347.729 297.712 402.549 236.162 435.059 215.132C450.989 204.832 468.819 196.802 487.709 195.072C505.489 193.432 538.379 197.462 555.129 203.612C600.129 220.162 661.809 275.792 644.779 322.462Z" fill="#C4C4C4"/>
<path d="M633.869 319.392C633.389 319.182 632.909 318.972 632.419 318.752C624.749 315.272 617.329 308.602 610.919 303.142C591.609 286.692 570.949 271.342 547.479 261.722C524.009 252.112 493.329 248.102 469.099 255.612C442.359 263.912 414.979 295.852 391.869 311.672C381.609 318.712 373.769 321.732 365.299 324.072C373.599 283.942 404.599 251.502 439.739 230.172C456.419 220.052 474.669 211.762 494.069 209.662C524.289 206.382 554.199 218.352 580.369 233.822C599.799 245.302 618.689 259.612 628.769 279.802C634.779 291.852 636.789 306.402 633.869 319.392Z" fill="#999999"/>
<path d="M516.819 104.882C511.509 104.632 506.059 104.612 500.419 104.752C495.059 104.892 489.669 105.262 484.289 105.892C484.109 104.562 484.149 103.232 484.489 101.902C485.369 98.4318 488.249 95.7118 491.559 94.3418C494.869 92.9718 498.559 92.8218 502.119 93.1418C505.349 93.4318 508.609 94.1318 511.379 95.8218C514.149 97.5018 516.369 100.292 516.769 103.512C516.829 103.972 516.839 104.422 516.819 104.882Z" fill="#C3C3C3"/>
</svg>
