<svg width="988" height="988" viewBox="0 0 988 988" fill="none" xmlns="http://www.w3.org/2000/svg">
<path d="M930.408 887.424C927.546 893.107 922.484 897.331 917.274 900.982C894.885 916.691 867.167 924.664 839.854 923.263C829.976 922.75 819.388 920.648 812.718 913.356C807.498 907.642 805.583 899.738 803.857 892.199C800.433 877.23 796.979 861.926 798.844 845.319C798.528 844.589 798.222 843.868 797.907 843.138C770.05 778.229 748.687 710.518 730.847 640.064C734.369 689.411 739.589 738.641 746.783 784.88C746.802 785.028 746.832 785.176 746.852 785.324C757.568 794.501 759.601 810.042 760.647 824.113C762.443 848.249 763.508 872.445 763.844 896.64C763.972 905.491 763.952 914.569 760.844 922.858C757.746 931.137 750.858 938.587 742.096 939.81C732.1 941.379 722.114 942.948 712.118 944.517C652.982 953.813 598.789 959.99 535.617 966.433C505.482 969.512 475.109 969.837 444.914 967.321C384.92 962.308 331.023 953.309 275.084 944.517C265.088 942.948 255.102 941.379 245.106 939.81C236.344 938.587 229.456 931.137 226.348 922.858C223.25 914.569 223.23 905.491 223.358 896.64C223.694 872.445 224.76 848.249 226.555 824.113C227.513 811.295 229.279 797.254 237.696 787.919C238.515 787.002 239.393 786.143 240.35 785.324C247.583 738.956 252.823 689.569 256.355 640.064C238.347 711.209 216.727 779.552 188.477 845.033C188.437 845.131 188.398 845.22 188.358 845.319C190.223 861.926 186.769 877.23 183.345 892.199C181.619 899.738 179.704 907.642 174.484 913.356C167.814 920.648 157.216 922.75 147.349 923.263C120.035 924.664 92.3173 916.691 69.9278 900.982C64.7177 897.331 59.6556 893.107 56.794 887.424C52.5904 879.046 53.8732 869.04 55.827 859.883C59.1919 844.144 64.2539 828.771 70.9145 814.108C70.9836 813.95 71.0527 813.802 71.1217 813.644C87.6104 631.361 118.999 450.538 165.081 273.533C177.672 225.173 191.654 176.387 217.704 133.74C243.459 91.5956 280.827 56.7039 325.626 33.8802C336.914 28.1274 348.676 23.1444 360.833 19C379.818 40.3534 399.593 62.3087 425.614 74.1004C427.429 74.9194 429.265 75.6891 431.12 76.4094C434.396 77.6823 437.721 78.7875 441.096 79.7742C457.545 85.6849 475.534 87.5499 493.601 87.1058C511.669 87.5499 529.657 85.6849 546.106 79.7742C549.481 78.7875 552.806 77.6823 556.082 76.4094C557.937 75.6891 559.773 74.9293 561.589 74.1004C587.609 62.3087 607.384 40.3534 626.369 19C638.437 23.1148 650.11 28.0485 661.32 33.7519C706.227 56.5756 743.694 91.5166 769.488 133.74C795.548 176.387 809.53 225.173 822.121 273.533C868.154 450.35 899.523 630.986 916.031 813.072C916.051 813.259 916.061 813.456 916.08 813.644C922.84 828.445 927.971 843.977 931.375 859.883C933.329 869.04 934.612 879.046 930.408 887.424Z" fill="black"/>
<path d="M930.408 887.424C927.547 893.107 922.485 897.331 917.275 900.982C894.885 916.691 867.167 924.664 839.854 923.263C829.976 922.75 819.388 920.648 812.718 913.356C807.498 907.642 805.584 899.738 803.857 892.2C800.433 877.231 796.979 861.926 798.844 845.319C798.528 844.589 798.222 843.868 797.907 843.138C837.288 833.123 876.65 823.097 916.031 813.072C916.051 813.259 916.061 813.457 916.081 813.644C922.84 828.445 927.971 843.977 931.375 859.883C933.329 869.04 934.612 879.046 930.408 887.424Z" fill="#3D3D3D"/>
<path d="M183.345 892.2C181.619 899.738 179.704 907.642 174.484 913.356C167.814 920.648 157.216 922.75 147.349 923.263C120.035 924.664 92.3173 916.691 69.9278 900.982C64.7177 897.331 59.6556 893.107 56.794 887.424C52.5904 879.046 53.8732 869.04 55.827 859.883C59.1919 844.145 64.2539 828.771 70.9145 814.108C88.7551 814.66 106.398 820.157 123.39 826.087C143.905 833.261 152.845 835.767 181.855 843.237C183.326 843.622 185.733 844.253 188.477 845.033C188.437 845.131 188.398 845.22 188.358 845.319C190.223 861.926 186.769 877.231 183.345 892.2Z" fill="#3D3D3D"/>
<path d="M760.844 922.858C757.746 931.137 750.858 938.587 742.096 939.811C732.1 941.38 722.114 942.949 712.118 944.518C652.982 953.813 598.789 959.99 535.617 966.434C505.482 969.512 475.109 969.838 444.915 967.322C384.92 962.309 331.023 953.31 275.084 944.518C265.088 942.949 255.102 941.38 245.107 939.811C236.344 938.587 229.457 931.137 226.348 922.858C223.25 914.57 223.23 905.491 223.359 896.64C223.694 872.445 224.76 848.25 226.556 824.114C227.513 811.296 229.279 797.254 237.696 787.92C248.55 784.338 260.372 783.913 271.897 783.696C401.182 781.289 541.854 782.542 645.867 785.798C649.163 785.897 652.459 785.877 655.745 785.709C698.787 783.617 712.029 784.229 734.281 783.943C738.455 783.894 742.757 783.943 746.783 784.88C746.803 785.028 746.832 785.176 746.852 785.324C757.568 794.501 759.601 810.043 760.647 824.114C762.443 848.25 763.508 872.445 763.844 896.64C763.972 905.491 763.952 914.57 760.844 922.858Z" fill="#3D3D3D"/>
<path d="M661.32 33.7519C636.67 78.5802 585.152 143.252 493.088 143.252C387.219 143.252 341.71 70.2126 325.625 33.8802C336.914 28.1274 348.676 23.1444 360.833 19C379.818 40.3534 399.593 62.3087 425.613 74.1004C427.429 74.9194 429.264 75.6891 431.119 76.4094C434.395 77.6823 437.721 78.7875 441.096 79.7742C457.545 85.6849 475.533 87.5499 493.601 87.1058C511.668 87.5499 529.657 85.6849 546.106 79.7742C549.481 78.7875 552.806 77.6823 556.082 76.4094C557.937 75.6891 559.773 74.9293 561.588 74.1004C587.609 62.3087 607.384 40.3534 626.369 19C638.437 23.1148 650.11 28.0485 661.32 33.7519Z" fill="#3D3D3D"/>
</svg>
