<svg width="988" height="988" viewBox="0 0 988 988" fill="none" xmlns="http://www.w3.org/2000/svg">
<path d="M741.207 908.971L742.384 916.39C742.375 916.642 741.333 916.75 737.503 917.047L495.057 927.883L492.648 928L490.239 927.883L247.802 917.047C269.91 779.43 298.805 594.854 298.805 594.854L287.046 591.131L139 542.93C139 542.93 169.181 418.973 186.407 351.591C195.478 316.069 212.488 273.479 229.255 232.499C229.543 231.78 229.84 231.06 230.136 230.341C230.748 228.848 231.359 227.355 231.961 225.863C232.851 223.686 233.732 221.537 234.604 219.442C234.793 218.983 234.982 218.525 235.171 218.066C237.382 212.625 239.594 207.23 241.761 201.906C241.761 201.888 242.049 201.016 242.049 200.998C250.769 173.642 260.335 155.251 273.048 141.403C286.272 123.597 303.031 112.707 326.702 102.158C354.024 89.9909 387.145 74.3794 413.388 60C434.57 85.0359 465.91 100.485 497.827 101.511C529.743 100.494 561.083 85.0359 582.274 60C608.517 74.3794 641.638 89.9909 668.96 102.158C709.65 120.279 729.906 139.469 746.961 192.922C746.961 192.949 747.239 193.812 747.239 193.83C767.423 243.461 791.23 299.028 802.602 343.524C819.819 410.907 850 534.863 850 534.863L701.954 583.055L690.204 586.778C690.204 586.778 719.099 771.355 741.207 908.971Z" fill="black"/>
</svg>
