<svg width="988" height="988" viewBox="0 0 988 988" fill="none" xmlns="http://www.w3.org/2000/svg">
<path d="M891.743 836.459C891.641 836.422 891.538 836.375 891.436 836.338C906.814 817.281 903.433 789.749 899.074 765.644C870.386 606.913 834.164 449.644 797.96 292.449C784.193 232.681 771.498 164.11 725.635 123.389C687.885 89.8674 636.266 114.717 599.839 120.958C563.411 127.189 540.21 127.534 512.342 151.806C511.56 152.486 508.84 155.243 505.683 158.475H479.817C453.207 138.189 420.449 126.621 387.347 120.958C350.919 114.717 302.681 94.6362 264.941 128.158C219.069 168.879 202.992 232.681 189.226 292.449C153.022 449.644 116.809 606.913 88.1123 765.644C83.7812 789.665 80.4001 817.095 95.6101 836.142C95.6566 836.207 95.7032 836.273 95.7591 836.338C77.6338 843.277 68.655 882.908 77.3451 900.261C86.0258 917.613 97.6313 915.582 115.673 922.726C129.858 928.343 155.332 930.681 170.505 929.023C185.678 927.365 191.49 919.783 197.618 905.802C203.747 891.831 207.705 864.997 195.01 852.302C195.187 852.088 195.355 851.883 195.532 851.678C211.953 832.323 218.761 860.974 268.014 665.815C272.867 710.783 255.692 771.502 244.627 815.344C241.935 817.058 239.457 819.628 237.213 822.879C222.384 844.301 217.69 895.091 228.644 922.372C242.605 957.17 273.072 955.596 339.062 959.601C356.07 960.625 398.757 965.245 446.203 967.602C461.729 968.375 477.778 968.906 493.593 968.989C509.408 968.906 525.456 968.375 540.983 967.602C588.429 965.245 631.116 960.625 648.123 959.601C714.114 955.596 744.59 957.17 758.551 922.372C770.371 892.893 763.944 835.965 746.21 818.315C745.046 817.141 743.835 816.145 742.568 815.344C731.494 771.502 714.319 710.783 719.171 665.815C768.937 863.013 775.382 831.699 792.175 852.302C791.756 852.721 791.356 853.159 790.974 853.606C779.741 866.758 783.644 892.297 789.568 905.802C795.706 919.783 801.518 927.365 816.69 929.023C831.863 930.681 857.328 928.343 871.522 922.726C889.564 915.582 901.16 917.613 909.85 900.261C918.484 883.011 909.654 843.724 891.743 836.459ZM465.343 473.031C464.328 476.412 461.31 478.778 458.237 480.501C451.959 484.022 444.871 485.782 437.82 487.161C434.905 487.729 431.766 488.213 429.074 486.956C426.801 485.894 425.255 483.752 423.877 481.656C416.388 470.191 411.331 457.142 411.48 441.596C415.438 438.448 419.816 435.849 424.454 433.856C428.208 432.226 432.138 431.006 436.153 430.205C440.26 429.376 444.452 428.994 448.634 429.087C450.273 429.125 452.033 429.274 453.319 430.308C454.399 431.183 454.949 432.552 455.442 433.856C459.242 443.915 462.4 454.208 464.887 464.667C465.548 467.415 466.153 470.321 465.343 473.031Z" fill="black"/>
<path d="M909.85 900.261C901.16 917.613 889.564 915.582 871.523 922.726C857.328 928.343 831.863 930.681 816.69 929.023C801.518 927.365 795.706 919.783 789.568 905.802C783.644 892.297 779.741 866.758 790.974 853.606C813.347 849.294 835.309 842.923 857.794 839.272C868.97 837.456 880.408 836.329 891.743 836.459C909.654 843.724 918.484 883.011 909.85 900.261Z" fill="#3D3D3D"/>
<path d="M197.618 905.803C191.49 919.783 185.678 927.365 170.505 929.023C155.332 930.681 129.858 928.343 115.673 922.726C97.6313 915.582 86.0258 917.613 77.3451 900.261C68.655 882.909 77.6338 843.277 95.7591 836.338C95.7032 836.273 95.6566 836.207 95.6101 836.142C104.328 834.55 113.232 833.879 122.09 834.037C142.292 834.401 162.271 838.918 181.337 845.633C186.143 847.329 191.015 849.247 195.532 851.678C195.355 851.883 195.187 852.088 195.01 852.302C207.705 864.997 203.747 891.831 197.618 905.803Z" fill="#3D3D3D"/>
<path d="M758.551 922.372C744.589 957.17 714.114 955.596 648.123 959.601C631.116 960.625 588.429 965.245 540.983 967.601C525.959 968.682 509.902 969.073 493.593 968.989C477.777 968.905 461.729 968.374 446.202 967.601C398.756 965.245 356.07 960.625 339.062 959.601C273.072 955.596 242.605 957.17 228.643 922.372C217.69 895.091 222.384 844.301 237.212 822.879C248.874 813.639 266.077 808.265 280.979 807.315C313.905 805.228 348.609 805.191 371.941 803.71C493.844 795.952 589.901 796.985 711.301 810.565C723.046 811.879 735.564 813.593 746.21 818.315C763.944 835.965 770.371 892.893 758.551 922.372Z" fill="#3D3D3D"/>
<path d="M493.304 159.416C471.761 116.589 447.358 74.9646 420.272 34.8767C416.37 29.1019 411.992 23.0198 405.146 20.4305C399.204 18.1765 392.451 18.9775 386.155 20.1697C366.558 23.8767 347.743 31.03 331.024 41.1265C324.775 44.8987 318.674 49.2391 314.874 55.1442C311.074 61.0587 310.012 68.8639 314.054 74.9087C309.937 72.8317 304.759 73.2229 300.446 74.9181C296.124 76.6132 292.492 79.4727 288.971 82.3228C281.511 88.3863 274.246 94.6454 267.195 101.1C260.824 106.931 254.285 113.534 253.289 121.74C252.087 131.604 259.622 140.974 269.067 145.817C278.511 150.66 289.577 151.918 300.325 153.054C338.243 157.05 376.207 160.655 414.172 164.25C423.84 165.163 433.517 166.085 443.241 166.168C452.164 166.243 461.077 165.619 469.972 164.995C479.268 164.324 488.573 163.672 493.304 159.416Z" fill="#3D3D3D"/>
<path d="M492.475 159.416C514.019 116.589 538.422 74.9646 565.507 34.8767C569.41 29.1019 573.787 23.0198 580.633 20.4305C586.576 18.1765 593.328 18.9775 599.625 20.1697C619.222 23.8767 638.036 31.03 654.755 41.1265C661.005 44.8987 667.105 49.2391 670.906 55.1442C674.706 61.0587 675.768 68.8639 671.725 74.9087C675.842 72.8317 681.021 73.2229 685.333 74.9181C689.655 76.6132 693.287 79.4727 696.808 82.3228C704.269 88.3863 711.534 94.6454 718.585 101.1C724.955 106.931 731.494 113.534 732.491 121.74C733.692 131.604 726.157 140.974 716.712 145.817C707.268 150.66 696.203 151.918 685.454 153.054C647.537 157.05 609.572 160.655 571.608 164.25C561.94 165.163 552.262 166.085 542.538 166.168C533.616 166.243 524.702 165.619 515.807 164.995C506.502 164.324 497.207 163.672 492.475 159.416Z" fill="#3D3D3D"/>
<path d="M454.241 154.461C453.375 164.538 446.892 173.601 446.631 183.707C438.407 225.062 430.285 265.885 426.969 307.268C423.672 348.436 425.227 390.378 436.153 430.205C432.138 431.006 428.208 432.226 424.454 433.856C402.287 342.699 422.06 246.577 441.834 154.069C442.514 150.903 444.349 149.291 446.119 148.118C447.889 146.944 450.357 146.562 452.108 147.773C454.129 149.161 454.446 152.011 454.241 154.461Z" fill="#B7B7B7"/>
<path d="M465.343 473.031C464.328 476.412 461.31 478.778 458.237 480.501C451.959 484.022 444.871 485.782 437.82 487.161C434.905 487.729 431.766 488.213 429.074 486.956C426.802 485.894 425.255 483.752 423.877 481.656C416.388 470.19 411.331 457.141 411.48 441.596C415.438 438.448 419.816 435.849 424.454 433.856C428.208 432.226 432.138 431.006 436.153 430.205C440.26 429.376 444.452 428.994 448.634 429.087C450.273 429.124 452.033 429.273 453.319 430.307C454.399 431.183 454.949 432.552 455.442 433.856C459.243 443.915 462.4 454.207 464.887 464.667C465.548 467.415 466.154 470.321 465.343 473.031Z" fill="#3D3D3D"/>
<path d="M542.678 154.461C543.544 164.538 550.027 173.601 550.288 183.707C558.512 225.062 566.634 265.885 569.95 307.268C573.247 348.436 571.692 390.378 560.766 430.205C564.78 431.006 568.711 432.226 572.465 433.856C594.632 342.699 574.858 246.577 555.084 154.069C554.405 150.903 552.57 149.291 550.8 148.118C549.03 146.944 546.562 146.562 544.811 147.773C542.79 149.161 542.473 152.011 542.678 154.461Z" fill="#B7B7B7"/>
<path d="M531.576 473.031C532.591 476.412 535.609 478.778 538.682 480.501C544.96 484.022 552.048 485.782 559.099 487.161C562.014 487.729 565.153 488.213 567.845 486.956C570.117 485.894 571.663 483.752 573.042 481.656C580.53 470.19 585.588 457.141 585.439 441.596C581.481 438.448 577.103 435.849 572.464 433.856C568.711 432.226 564.78 431.006 560.766 430.205C556.658 429.376 552.467 428.994 548.285 429.087C546.646 429.124 544.885 429.273 543.6 430.307C542.52 431.183 541.97 432.552 541.476 433.856C537.676 443.915 534.519 454.207 532.032 464.667C531.371 467.415 530.765 470.321 531.576 473.031Z" fill="#3D3D3D"/>
</svg>
