<svg width="1000" height="3200" viewBox="0 0 1000 3200" fill="none" xmlns="http://www.w3.org/2000/svg">
<path d="M421.509 1552.9C356.239 1557.29 290.739 1558.32 225.369 1555.99C249.979 1398.41 277.329 1243.77 303.689 1088.96C268.309 1170.29 241.619 1253.05 218.049 1336.68C206.199 1366.83 179.699 1456.16 164.289 1489.3C164.009 1489.91 163.729 1490.51 163.449 1491.08C165.979 1511.66 160.149 1530.97 154.389 1549.56C153.019 1553.97 151.469 1558.65 147.869 1561.52C144.299 1564.37 139.439 1564.87 134.879 1564.92C119.249 1565.11 103.589 1561.39 89.719 1554.18C85.979 1552.23 82.169 1549.83 80.329 1546.04C78.509 1542.29 78.9389 1537.89 79.4089 1533.75C80.6789 1522.7 81.939 1511.65 83.199 1500.6C83.879 1494.68 84.5689 1488.7 86.4989 1483.06C88.3789 1477.57 91.5389 1472.35 96.2589 1469C96.3889 1468.91 96.5189 1468.81 96.6589 1468.72C98.7989 1450.83 101.419 1433.99 104.039 1417.15C123.029 1296.32 142.289 1176.55 161.549 1056.78C176.359 964.7 191.199 872.47 214.429 782.14C222.039 752.52 230.949 722.34 249.629 698.13C276.289 663.58 318.849 645.99 366.989 632C384.929 938.46 402.869 1244.93 421.509 1552.9Z" fill="white"/>
<path d="M918.769 1546.04C916.929 1549.83 913.119 1552.23 909.379 1554.18C895.509 1561.39 879.849 1565.11 864.219 1564.92C859.659 1564.87 854.789 1564.37 851.229 1561.52C847.619 1558.65 846.079 1553.97 844.709 1549.56C839.189 1531.73 833.589 1513.24 835.379 1493.59C835.459 1492.76 835.549 1491.92 835.649 1491.08C820.379 1459.48 793.109 1367.39 781.049 1336.68C757.479 1253.05 730.789 1170.29 695.409 1088.96C721.769 1243.77 749.119 1398.41 773.729 1555.99C708.349 1558.32 642.859 1557.29 577.589 1552.9C596.219 1244.93 614.169 938.46 632.109 632C680.239 645.99 722.809 663.58 749.469 698.13C768.149 722.34 777.049 752.52 784.669 782.14C807.899 872.47 822.739 964.7 837.549 1056.78C856.809 1176.55 876.069 1296.32 895.059 1417.15C897.669 1433.99 900.289 1450.83 902.439 1468.72C902.769 1468.94 903.089 1469.18 903.409 1469.42C907.809 1472.78 910.799 1477.8 912.599 1483.06C914.529 1488.7 915.219 1494.68 915.899 1500.6L919.679 1533.75C920.159 1537.89 920.589 1542.29 918.769 1546.04Z" fill="white"/>
<path d="M918.769 1546.04C916.929 1549.83 913.119 1552.23 909.379 1554.18C895.509 1561.39 879.849 1565.11 864.219 1564.92C859.659 1564.87 854.789 1564.37 851.229 1561.52C847.619 1558.65 846.079 1553.97 844.709 1549.56C839.189 1531.73 833.589 1513.24 835.379 1493.59C835.509 1493.45 835.649 1493.31 835.789 1493.18C843.419 1485.8 853.439 1481.41 863.509 1478.03C875.859 1473.9 888.639 1471.07 901.569 1469.61C902.179 1469.54 902.789 1469.48 903.409 1469.42C907.809 1472.78 910.799 1477.8 912.599 1483.06C914.529 1488.7 915.219 1494.68 915.899 1500.6L919.679 1533.75C920.159 1537.89 920.589 1542.29 918.769 1546.04Z" fill="#BBBBBB"/>
<path d="M163.449 1491.08C165.979 1511.66 160.149 1530.97 154.389 1549.56C153.019 1553.97 151.469 1558.65 147.869 1561.52C144.299 1564.37 139.439 1564.87 134.879 1564.92C119.249 1565.11 103.589 1561.39 89.719 1554.18C85.979 1552.23 82.169 1549.83 80.329 1546.04C78.509 1542.29 78.9389 1537.89 79.4089 1533.75C80.6789 1522.7 81.939 1511.65 83.199 1500.6C83.879 1494.68 84.5689 1488.7 86.4989 1483.06C88.3789 1477.57 91.5389 1472.35 96.2589 1469C98.5389 1469.14 100.809 1469.35 103.069 1469.61C116.009 1471.07 128.789 1473.9 141.129 1478.03C149.299 1480.77 157.429 1484.18 164.289 1489.3C164.009 1489.91 163.729 1490.51 163.449 1491.08Z" fill="#BBBBBB"/>
</svg>
