<svg width="988" height="988" viewBox="0 0 988 988" fill="none" xmlns="http://www.w3.org/2000/svg">
<path d="M849 901.789C845.102 903.868 841.062 905.639 836.811 906.926C828.442 909.472 819.04 909.825 810.847 907.137C791.188 841.296 739.364 665.67 723.03 589.607C712.553 540.791 677.522 481.356 646.274 418.713C646.274 418.713 641.758 423.912 637.595 437.015C637.507 436.698 637.419 436.372 637.331 436.055C629.614 458.991 622.417 508.496 646.503 601.582C670.193 693.127 694.049 744.896 707.905 830.555C651.98 829.277 593.648 831.154 534.724 828.916C506.625 827.849 478.5 827.849 450.401 828.916C391.495 831.154 333.198 829.277 277.273 830.555C291.128 744.896 314.985 693.127 338.675 601.582C368.105 487.85 350.828 439.183 342.979 424.52C342.979 424.441 342.987 424.353 342.987 424.273C342.291 423.022 341.929 421.718 341.814 420.37C341.056 419.233 340.597 418.713 340.597 418.713C309.35 481.356 274.318 540.791 263.832 589.607C248.212 662.383 200.093 826.316 178.75 898.008C170.653 900.537 161.428 900.158 153.208 897.656C148.225 896.14 143.524 893.973 139 891.408C150.412 788.937 172.708 665.952 187.314 566.151C201.954 466.129 213.931 368.601 231.297 283.621C231.094 283.418 230.9 283.207 230.697 283.004C232.611 273.655 234.595 264.464 236.659 255.432C257.544 164.028 275.447 140.704 326.512 119.018C353.024 107.757 385.171 93.3057 410.642 80C431.2 103.166 461.619 117.476 492.593 118.419C523.568 117.467 553.986 103.166 574.536 80C600.006 93.3057 632.154 107.757 658.665 119.018C693.547 133.831 712.959 149.41 728.41 186.93C728.79 186.939 729.16 186.956 729.539 186.974C736.577 204.263 742.813 226.177 749.339 254.727C770.215 346.131 783.224 454.594 799.549 566.151C814.657 669.345 837.984 797.326 849 901.789Z" fill="black"/>
</svg>
