<svg width="988" height="988" viewBox="0 0 988 988" fill="none" xmlns="http://www.w3.org/2000/svg">
<path d="M743.783 919.76V919.75C734.023 859.366 719.887 813.822 704.137 763.075C694.533 732.135 684.33 699.26 674.153 659.91C640.783 530.84 660.373 475.61 669.273 458.97C669.273 458.925 669.27 458.878 669.268 458.83C669.265 458.782 669.263 458.735 669.263 458.69C669.89 457.56 670.282 456.387 670.482 455.183C670.969 455.173 671.456 455.163 671.944 455.152C672.104 455.152 672.26 455.152 672.417 455.15C672.515 455.149 672.614 455.146 672.714 455.142C672.724 455.142 672.724 455.132 672.734 455.132L673.324 452.302C693.684 354.172 710.784 255.362 724.044 155.452C724.984 148.412 725.894 141.372 726.784 134.332C715.954 126.132 703.244 119.482 687.894 112.952C684.587 111.548 681.203 110.098 677.76 108.611C677.154 107.898 676.381 107.313 675.473 106.92C648.273 95.14 617.713 81.14 592.773 68.12C592.703 68.08 592.623 68.04 592.553 68C569.283 94.25 534.863 110.48 499.803 111.59C499.743 111.6 499.693 111.6 499.633 111.6C466.133 110.57 433.223 95.76 410.033 71.58C408.103 69.56 405.093 69.03 402.603 70.31C378.493 82.7 349.823 95.79 324.143 106.92C323.352 107.262 322.664 107.749 322.1 108.34C318.443 109.921 314.85 111.46 311.344 112.952C296.734 119.162 284.524 125.492 274.044 133.162C274.984 140.602 275.944 148.032 276.934 155.452C290.194 255.362 307.294 354.172 327.654 452.302L328.244 455.132C328.249 455.132 328.251 455.135 328.254 455.137C328.256 455.14 328.259 455.142 328.264 455.142C328.552 455.148 328.841 455.154 329.13 455.161C329.328 456.373 329.722 457.553 330.353 458.69C330.353 458.735 330.35 458.782 330.348 458.83C330.345 458.878 330.343 458.925 330.343 458.97C339.243 475.61 358.833 530.84 325.463 659.91C315.284 699.278 305.078 732.164 295.473 763.118C280.391 811.718 266.788 855.552 257.093 912.22C256.423 916.12 259.473 919.66 263.433 919.6H263.513C266.073 919.55 268.633 919.51 271.203 919.47C293.665 919.145 316.442 919.182 339.446 919.218C365.323 919.26 391.486 919.301 417.813 918.83C423.523 918.73 429.243 918.6 434.963 918.45C440.593 918.29 446.233 918.11 451.873 917.9C455.903 917.75 459.923 917.62 463.953 917.5C467.983 917.39 472.013 917.3 476.043 917.22C491.893 916.92 507.733 916.92 523.583 917.22C527.613 917.3 531.643 917.39 535.673 917.5C539.613 917.62 543.553 917.75 547.483 917.9C553.223 918.12 558.943 918.3 564.663 918.45C570.393 918.61 576.103 918.73 581.813 918.83C608.133 919.301 634.295 919.26 660.171 919.218C683.176 919.182 705.955 919.145 728.423 919.47C730.993 919.51 733.563 919.55 736.123 919.6C737.446 919.626 738.766 919.652 740.085 919.679C741.318 919.704 742.55 919.731 743.783 919.76Z" fill="black"/>
</svg>
