<svg width="1000" height="3200" viewBox="0 0 1000 3200" fill="none" xmlns="http://www.w3.org/2000/svg">
<path d="M826.43 350.943C814.72 369.523 796.419 383.043 777.219 393.693C749.609 409.013 719.85 419.073 689.07 425.783C691.65 420.463 693.94 415.033 695.64 409.373C698.89 398.533 699.82 386.683 696.15 375.973C692.48 365.273 683.659 355.973 672.579 353.683C673.719 346.693 674.359 338.753 674.479 330.203C692.169 318.143 702.329 304.083 702.329 289.063C702.329 269.413 684.93 251.383 655.99 237.373C619.2 219.553 563.759 208.213 501.749 208.213C447.019 208.213 397.399 217.053 361.209 231.383C324.149 246.053 301.17 266.473 301.17 289.063C301.17 303.533 310.589 317.113 327.099 328.853C327.089 335.983 327.579 343.123 328.599 350.193C314.139 356.133 304.269 369.553 301.989 383.923C299.959 396.633 303.339 409.773 309.889 420.903C265.929 418.933 222.58 404.543 186.2 379.793C165.44 365.673 145.699 345.913 143.249 320.923C141.519 303.273 148.959 285.643 160.209 271.933C171.469 258.233 186.279 247.933 201.339 238.573C235.959 217.053 273.03 199.533 311.56 186.323C363.75 168.403 418.59 158.393 473.57 157.013C550.77 160.423 619.589 171.133 686.719 196.053C715.969 206.893 744.89 220.443 774.05 237.253C791.01 247.033 824.4 270.453 832.82 288.133C842.27 307.963 838.13 332.353 826.43 350.943Z" fill="#E2E2E2"/>
<path d="M686.719 196.053C619.589 171.133 550.77 160.423 473.57 157.013C418.59 158.393 363.75 168.403 311.56 186.323C329.66 140.793 365.39 102.303 409.88 81.6326C462.27 57.3026 525.72 58.2026 577.4 84.0126C624.84 107.713 660.019 149.623 686.719 196.053Z" fill="white"/>
<path d="M361.209 231.383C339.229 258.963 327.139 293.913 327.099 328.853C310.589 317.113 301.17 303.533 301.17 289.063C301.17 266.473 324.149 246.053 361.209 231.383Z" fill="#C5C5C5"/>
<path d="M702.329 289.063C702.329 304.083 692.169 318.143 674.479 330.203C674.869 301.633 669.33 266.333 655.99 237.373C684.93 251.383 702.329 269.413 702.329 289.063Z" fill="#C5C5C5"/>
</svg>
