<svg width="988" height="988" viewBox="0 0 988 988" fill="none" xmlns="http://www.w3.org/2000/svg">
<path d="M912.85 762.151C899.63 761.02 886.291 761.453 873.192 763.427C873.168 763.427 873.168 763.428 873.144 763.452C866.691 764.391 860.334 765.715 854.05 767.4C849.908 767.738 845.983 767.665 842.179 767.28C784.102 666.704 698.55 573.929 590.197 534.079C549.865 519.271 506.789 509.567 463.977 513.516C418.493 517.682 375.561 537.017 337.204 561.818C258.924 612.455 196.488 687.291 160.732 773.396C160.274 773.516 159.817 773.637 159.359 773.757C144.696 764.222 125.673 759.84 106.868 761.044C105.134 761.164 103.377 761.309 101.643 761.525C87.6053 763.211 83.6081 760.851 71.617 768.315C60.4927 718.112 67.4274 672.651 76.505 621.942C88.5202 554.715 116.548 490.882 154.399 434.033C188.254 383.227 225.503 344.629 275.924 310.173C328.391 274.32 391.91 253.058 455.742 245.811C468.697 244.294 481.675 243.403 494.581 243.066C508.161 242.729 521.284 242.777 534.07 243.379C593.183 246.1 645.217 260.089 704.257 297.026C781.935 344.966 845.044 416.142 883.353 498.997C920.579 579.515 934.255 670.749 912.85 762.151Z" fill="black"/>
<path d="M844.105 767.641C834.883 766.702 826.431 763.933 817.835 760.249C816.68 759.743 815.524 759.237 814.344 758.708C795.876 750.328 778.01 734.268 762.575 721.121C716.08 681.512 666.333 644.551 609.821 621.388C553.308 598.248 479.435 588.593 421.093 606.676C356.707 626.661 290.78 703.568 235.134 741.66C210.43 758.611 191.552 765.883 171.158 771.517C168.365 772.288 165.523 773.034 162.658 773.757C128.852 708.046 260.851 559.843 339.13 509.206C377.487 484.405 420.419 465.07 465.903 460.904C508.715 456.955 587.909 466.659 628.241 481.467C736.594 521.317 885.111 655.266 844.105 767.641Z" fill="#C4C4C4"/>
<path d="M817.835 760.249C816.68 759.743 815.524 759.237 814.344 758.708C795.876 750.328 778.01 734.268 762.575 721.121C716.08 681.512 666.333 644.551 609.821 621.388C553.308 598.248 479.435 588.593 421.093 606.676C356.707 626.661 290.78 703.568 235.134 741.66C210.43 758.611 191.552 765.883 171.158 771.517C191.143 674.89 265.786 596.779 350.398 545.42C390.561 521.052 434.505 501.091 481.217 496.035C553.983 488.137 626.002 516.959 689.015 554.209C735.8 581.851 781.284 616.307 805.555 664.922C820.027 693.936 824.866 728.971 817.835 760.249Z" fill="#999999"/>
<path d="M535.996 243.74C523.211 243.138 510.088 243.089 496.507 243.427C483.601 243.764 470.623 244.655 457.669 246.171C457.235 242.969 457.331 239.767 458.15 236.564C460.269 228.209 467.204 221.659 475.174 218.361C483.144 215.062 492.029 214.701 500.601 215.471C508.378 216.17 516.228 217.855 522.897 221.924C529.567 225.97 534.913 232.687 535.876 240.441C536.02 241.548 536.044 242.632 535.996 243.74Z" fill="#848484"/>
</svg>
