<svg width="988" height="988" viewBox="0 0 988 988" fill="none" xmlns="http://www.w3.org/2000/svg">
<path d="M767.981 779.21C577.483 831.352 339.705 800.936 255.598 779.21L216.234 750.816L176.224 634.013L696.351 541.087C792.288 598.736 958.479 727.068 767.981 779.21Z" fill="#3D3D3D"/>
<path d="M728.617 660.08C504.046 756.624 340.351 685.211 278.83 660.08L262.697 601.202L343.362 479.137L697.642 500.678L735.071 565.3L728.617 660.08Z" fill="black"/>
<path d="M924.058 688.146C908.944 712.126 885.326 729.575 860.545 743.321C824.911 763.093 786.502 776.077 746.776 784.737C750.106 777.871 753.061 770.863 755.255 763.558C759.45 749.567 760.65 734.273 755.914 720.451C751.177 706.641 739.793 694.638 725.493 691.682C726.964 682.661 727.79 672.413 727.945 661.378C750.777 645.813 763.89 627.667 763.89 608.281C763.89 582.92 741.433 559.65 704.081 541.568C656.599 518.569 585.046 503.933 505.014 503.933C434.377 503.933 370.335 515.342 323.627 533.837C275.796 552.771 246.138 579.126 246.138 608.281C246.138 626.957 258.295 644.484 279.604 659.636C279.591 668.838 280.223 678.053 281.54 687.178C262.877 694.844 250.138 712.165 247.196 730.711C244.576 747.115 248.938 764.074 257.392 778.439C200.655 775.896 144.706 757.324 97.753 725.381C70.9594 707.157 45.4821 681.654 42.32 649.401C40.0872 626.621 49.6895 603.867 64.2092 586.173C78.7418 568.491 97.8561 555.197 117.293 543.117C161.975 515.342 209.819 492.73 259.547 475.681C326.906 452.553 397.684 439.634 468.643 437.853C568.281 442.254 657.102 456.076 743.743 488.239C781.494 502.23 818.819 519.718 856.454 541.413C878.343 554.036 921.438 584.262 932.305 607.081C944.502 632.674 939.158 664.153 924.058 688.146Z" fill="#3D3D3D"/>
<path d="M743.743 488.239C657.102 456.076 568.281 442.254 468.644 437.853C397.684 439.634 326.906 452.553 259.547 475.681C282.908 416.919 329.022 367.242 386.443 340.564C454.059 309.163 535.95 310.325 602.65 343.636C663.878 374.224 709.283 428.315 743.743 488.239Z" fill="black"/>
<path d="M323.627 533.837C295.259 569.433 279.655 614.541 279.604 659.636C258.295 644.484 246.138 626.957 246.138 608.281C246.138 579.126 275.796 552.771 323.627 533.837Z" fill="black"/>
<path d="M763.89 608.281C763.89 627.667 750.777 645.813 727.945 661.378C728.449 624.505 721.299 578.945 704.082 541.568C741.433 559.65 763.89 582.92 763.89 608.281Z" fill="black"/>
</svg>
