<svg width="988" height="988" viewBox="0 0 988 988" fill="none" xmlns="http://www.w3.org/2000/svg">
<path d="M749.718 781H530.463C524.922 679.286 519.056 574.391 512.335 461.119C512.452 459.495 511.54 457.93 510.284 456.892C509.037 455.854 507.481 455.252 505.949 454.724C502.04 453.385 498.006 452.389 493.863 451.619C489.712 452.389 485.678 453.385 481.769 454.724C480.229 455.252 478.681 455.854 477.434 456.892C476.179 457.93 475.258 459.495 475.384 461.119C468.663 574.391 462.796 679.286 457.255 781H238C242.135 586.1 258.932 391.317 316.866 206C325.645 208.72 410.646 209.264 468.437 209.314C479.108 209.331 488.766 209.323 496.734 209.314C496.985 209.323 497.245 209.323 497.496 209.314C504.016 209.331 511.372 209.331 519.281 209.314C577.073 209.264 660.399 208.72 669.179 206C727.112 391.317 745.584 586.1 749.718 781Z" fill="black"/>
</svg>
