<svg width="1000" height="3200" viewBox="0 0 1000 3200" fill="none" xmlns="http://www.w3.org/2000/svg">
<path d="M898.557 3062.86C898.017 3062.95 897.487 3063.04 896.947 3063.13C795.497 3076.4 734.087 3070.75 610.507 3065.22C610.287 3065 610.077 3064.78 609.877 3064.55C607.097 3053.58 604.607 3045.32 606.357 3037.31C606.897 3034.77 607.877 3032.26 609.407 3029.69C610.027 3028.69 610.657 3027.7 611.347 3026.75C614.177 2942.6 615.917 2905.67 615.917 2812C665.947 2812.99 701.257 2812.34 752.517 2812.7C752.517 2899.72 753.897 2901.37 753.897 2949.68C799.597 2970.47 845.287 2991 890.967 3011.53C896.977 3020.68 900.357 3031.3 900.937 3042.07V3042.11C901.337 3049.1 900.547 3056.15 898.557 3062.86Z" fill="white"/>
<path d="M899.017 3062.86C898.327 3062.95 897.637 3063.04 896.947 3063.13C795.497 3076.4 734.087 3070.75 610.507 3065.22C610.287 3065 610.077 3064.78 609.877 3064.55C603.297 3057.36 603.137 3046.68 606.357 3037.31C607.267 3034.62 608.467 3032.05 609.867 3029.69C634.407 3026.65 659.297 3028.07 683.987 3029.47C750.587 3033.29 817.197 3037.11 883.817 3040.94C889.487 3041.26 895.217 3041.61 900.937 3042.07C901.087 3042.08 901.247 3042.1 901.397 3042.11C901.787 3049.1 901.007 3056.15 899.017 3062.86Z" fill="#515151"/>
<path d="M100.937 3062.86C101.477 3062.95 102.007 3063.04 102.547 3063.13C203.997 3076.4 265.407 3070.75 388.987 3065.22C389.207 3065 389.417 3064.78 389.617 3064.55C392.397 3053.58 394.887 3045.32 393.137 3037.31C392.597 3034.77 391.617 3032.26 390.087 3029.69C389.467 3028.69 388.837 3027.7 388.147 3026.75C385.317 2942.6 383.577 2905.67 383.577 2812C333.547 2812.99 298.237 2812.34 246.977 2812.7C246.977 2899.72 245.597 2901.37 245.597 2949.68C199.897 2970.47 154.207 2991 108.527 3011.53C102.517 3020.68 99.1373 3031.3 98.5573 3042.07V3042.11C98.1573 3049.1 98.9473 3056.15 100.937 3062.86Z" fill="white"/>
<path d="M100.477 3062.86C101.167 3062.95 101.857 3063.04 102.547 3063.13C203.997 3076.4 265.407 3070.75 388.987 3065.22C389.207 3065 389.417 3064.78 389.617 3064.55C396.197 3057.36 396.357 3046.68 393.137 3037.31C392.227 3034.62 391.027 3032.05 389.627 3029.69C365.087 3026.65 340.197 3028.07 315.507 3029.47C248.907 3033.29 182.297 3037.11 115.677 3040.94C110.007 3041.26 104.277 3041.61 98.5573 3042.07C98.4073 3042.08 98.2473 3042.1 98.0973 3042.11C97.7073 3049.1 98.4873 3056.15 100.477 3062.86Z" fill="#515151"/>
</svg>
