<svg width="988" height="988" viewBox="0 0 988 988" fill="none" xmlns="http://www.w3.org/2000/svg">
<path d="M414.777 965.753C348.313 970.223 281.614 971.272 215.048 968.899C240.108 808.436 267.958 650.966 294.801 493.323C258.773 576.141 231.595 660.416 207.594 745.576C195.527 776.278 168.542 867.243 152.85 900.989C152.565 901.61 152.28 902.221 151.994 902.802C154.571 923.758 148.634 943.422 142.769 962.352C141.373 966.843 139.795 971.608 136.129 974.531C132.494 977.433 127.545 977.942 122.902 977.993C106.985 978.186 91.039 974.398 76.9152 967.056C73.1067 965.071 69.227 962.627 67.3533 958.767C65.5 954.949 65.9378 950.468 66.4164 946.252C67.7097 935 68.9928 923.748 70.2758 912.496C70.9683 906.467 71.6708 900.378 73.6361 894.635C75.5505 889.044 78.7684 883.729 83.5748 880.317C83.7071 880.226 83.8395 880.124 83.9821 880.032C86.1613 861.815 88.8292 844.667 91.4972 827.519C110.835 704.477 130.447 582.516 150.06 460.554C165.141 366.789 180.252 272.871 203.907 180.888C211.657 150.726 220.73 119.993 239.752 95.3402C266.899 60.1579 310.238 42.246 359.259 28C377.528 340.068 395.796 652.147 414.777 965.753Z" fill="black"/>
<path d="M921.137 958.767C919.263 962.627 915.384 965.071 911.575 967.056C897.451 974.398 881.505 978.186 865.589 977.993C860.945 977.942 855.986 977.433 852.361 974.531C848.685 971.608 847.117 966.843 845.722 962.352C840.101 944.196 834.398 925.367 836.221 905.358C836.302 904.512 836.394 903.657 836.496 902.802C820.947 870.623 793.177 776.848 780.897 745.576C756.895 660.416 729.717 576.141 693.689 493.323C720.532 650.966 748.382 808.436 773.443 968.899C706.866 971.272 640.178 970.223 573.713 965.753C592.684 652.147 610.963 340.068 629.231 28C678.242 42.246 721.591 60.1579 748.739 95.3402C767.761 119.993 776.824 150.726 784.583 180.888C808.238 272.871 823.35 366.789 838.431 460.554C858.043 582.516 877.656 704.477 896.993 827.519C899.651 844.667 902.319 861.815 904.508 880.032C904.844 880.256 905.17 880.501 905.496 880.745C909.977 884.167 913.021 889.279 914.854 894.635C916.819 900.378 917.522 906.467 918.215 912.496L922.064 946.252C922.553 950.468 922.99 954.949 921.137 958.767Z" fill="black"/>
<path d="M921.137 958.767C919.263 962.627 915.384 965.071 911.575 967.056C897.451 974.398 881.505 978.186 865.589 977.993C860.945 977.942 855.986 977.433 852.361 974.531C848.685 971.608 847.117 966.842 845.722 962.352C840.101 944.195 834.398 925.367 836.221 905.357C836.353 905.215 836.496 905.072 836.639 904.94C844.408 897.425 854.612 892.955 864.866 889.513C877.442 885.307 890.456 882.425 903.622 880.939C904.244 880.867 904.865 880.806 905.496 880.745C909.977 884.167 913.021 889.278 914.854 894.635C916.82 900.378 917.522 906.467 918.215 912.496L922.064 946.252C922.553 950.468 922.99 954.949 921.137 958.767Z" fill="#3D3D3D"/>
<path d="M151.994 902.802C154.571 923.758 148.634 943.422 142.769 962.352C141.373 966.842 139.795 971.608 136.129 974.531C132.494 977.433 127.545 977.942 122.902 977.993C106.985 978.186 91.039 974.398 76.9152 967.056C73.1067 965.071 69.227 962.627 67.3533 958.767C65.5 954.949 65.9378 950.468 66.4164 946.252C67.7097 935 68.9928 923.748 70.2758 912.496C70.9683 906.467 71.6708 900.378 73.6361 894.635C75.5505 889.044 78.7684 883.729 83.5748 880.317C85.8965 880.46 88.2081 880.674 90.5094 880.939C103.686 882.425 116.7 885.307 129.266 889.513C137.585 892.303 145.864 895.775 152.85 900.989C152.565 901.61 152.28 902.221 151.994 902.802Z" fill="#3D3D3D"/>
</svg>
