<svg width="1000" height="3200" viewBox="0 0 1000 3200" fill="none" xmlns="http://www.w3.org/2000/svg">
<path d="M905.723 3049.47C905.803 3053.1 904.203 3056.46 901.723 3059.13C899.873 3061.13 897.543 3062.74 895.053 3063.81C889.233 3066.3 881.183 3067.82 874.883 3068.44C831.383 3072.68 806.833 3068.9 806.833 3068.9C806.833 3068.9 784.053 3066.91 764.923 3062.33C744.543 3057.46 706.753 3050.97 695.423 3047.77C685.873 3045.08 672.013 3045.4 666.383 3053.57C666.383 3059.67 666.583 3056.99 666.243 3063.84C650.263 3067.77 637.573 3067.68 619.973 3064.85C619.973 3046.26 617.523 3028.77 616.593 3010.75C616.123 3001.54 616.053 2992.2 616.913 2982.51C618.723 2962.05 626.183 2942.6 631.713 2922.82C637.243 2903.05 637.053 2885.65 634.473 2862.3C659.883 2852.93 698.843 2845.78 726.223 2844C720.193 2890.64 744.343 2934.74 780.403 2966.81C793.713 2978.66 799.503 2986.14 815.893 2993.16C846.383 3006.24 864.373 3012.82 894.873 3025.9C900.383 3028.89 905.533 3040.96 905.723 3049.47Z" fill="white"/>
<path d="M901.723 3059.13C899.873 3061.13 897.543 3062.74 895.053 3063.81C889.233 3066.3 881.183 3067.82 874.883 3068.44C831.383 3072.68 806.833 3068.9 806.833 3068.9C806.833 3068.9 784.053 3066.91 764.923 3062.33C744.543 3057.46 706.753 3050.97 695.423 3047.77C685.873 3045.08 672.013 3045.4 666.383 3053.57C666.383 3059.67 666.583 3056.99 666.243 3063.84C650.263 3067.77 637.573 3067.68 619.973 3064.85C619.973 3046.26 617.523 3028.77 616.593 3010.75C712.133 3009.59 804.053 3062.89 900.243 3059.18C900.733 3059.16 901.223 3059.14 901.723 3059.13Z" fill="#515151"/>
<path d="M95.0029 3049.47C94.9229 3053.1 96.5229 3056.46 99.0029 3059.13C100.853 3061.13 103.183 3062.74 105.673 3063.81C111.493 3066.3 119.543 3067.82 125.843 3068.44C169.343 3072.68 193.893 3068.9 193.893 3068.9C193.893 3068.9 216.673 3066.91 235.803 3062.33C256.183 3057.46 293.973 3050.97 305.303 3047.77C314.853 3045.08 328.713 3045.4 334.343 3053.57C334.343 3059.67 334.143 3056.99 334.483 3063.84C350.463 3067.77 363.153 3067.68 380.753 3064.85C380.753 3046.26 383.203 3028.77 384.133 3010.75C384.603 3001.54 384.673 2992.2 383.813 2982.51C382.003 2962.05 374.543 2942.6 369.013 2922.82C363.483 2903.05 363.673 2885.65 366.253 2862.3C340.843 2852.93 301.883 2845.78 274.503 2844C280.533 2890.64 256.383 2934.74 220.323 2966.81C207.013 2978.66 201.223 2986.14 184.833 2993.16C154.343 3006.24 136.353 3012.82 105.853 3025.9C100.343 3028.89 95.1929 3040.96 95.0029 3049.47Z" fill="white"/>
<path d="M99.0028 3059.13C100.853 3061.13 103.183 3062.74 105.673 3063.81C111.493 3066.3 119.543 3067.82 125.843 3068.44C169.343 3072.68 193.893 3068.9 193.893 3068.9C193.893 3068.9 216.673 3066.91 235.803 3062.33C256.183 3057.46 293.973 3050.97 305.303 3047.77C314.853 3045.08 328.713 3045.4 334.343 3053.57C334.343 3059.67 334.143 3056.99 334.483 3063.84C350.463 3067.77 363.153 3067.68 380.753 3064.85C380.753 3046.26 383.203 3028.77 384.133 3010.75C288.593 3009.59 196.673 3062.89 100.483 3059.18C99.9928 3059.16 99.5028 3059.14 99.0028 3059.13Z" fill="#515151"/>
</svg>
