<svg width="1000" height="3200" viewBox="0 0 1000 3200" fill="none" xmlns="http://www.w3.org/2000/svg">
<path d="M926.961 1459.66C926.851 1459.62 926.741 1459.57 926.631 1459.53C943.141 1439.07 939.511 1409.51 934.831 1383.63C904.031 1213.21 865.141 1044.36 826.271 875.586C811.491 811.416 797.861 737.796 748.621 694.076C708.091 658.086 652.671 684.766 613.561 691.466C574.451 698.156 549.541 698.526 519.621 724.586C518.781 725.316 515.861 728.276 512.471 731.746H484.701C456.131 709.966 420.961 697.546 385.421 691.466C346.311 684.766 294.521 663.206 254.001 699.196C204.751 742.916 187.491 811.416 172.711 875.586C133.841 1044.36 94.9615 1213.21 64.1515 1383.63C59.5015 1409.42 55.8714 1438.87 72.2014 1459.32C72.2514 1459.39 72.3014 1459.46 72.3614 1459.53C52.9014 1466.98 43.2614 1509.53 52.5914 1528.16C61.9114 1546.79 74.3714 1544.61 93.7414 1552.28C108.971 1558.31 136.321 1560.82 152.611 1559.04C168.901 1557.26 175.141 1549.12 181.721 1534.11C188.301 1519.11 192.551 1490.3 178.921 1476.67C179.111 1476.44 179.291 1476.22 179.481 1476C197.111 1455.22 204.421 1485.98 257.301 1276.45C262.511 1324.73 244.071 1389.92 232.191 1436.99C229.301 1438.83 226.641 1441.59 224.231 1445.08C208.311 1468.08 203.271 1522.61 215.031 1551.9C230.021 1589.26 262.731 1587.57 333.581 1591.87C351.841 1592.97 397.671 1597.93 448.611 1600.46C465.281 1601.29 482.511 1601.86 499.491 1601.95C516.471 1601.86 533.701 1601.29 550.371 1600.46C601.311 1597.93 647.141 1592.97 665.401 1591.87C736.251 1587.57 768.971 1589.26 783.961 1551.9C796.651 1520.25 789.751 1459.13 770.711 1440.18C769.461 1438.92 768.161 1437.85 766.801 1436.99C754.911 1389.92 736.471 1324.73 741.681 1276.45C795.111 1488.17 802.031 1454.55 820.061 1476.67C819.611 1477.12 819.181 1477.59 818.771 1478.07C806.711 1492.19 810.901 1519.61 817.261 1534.11C823.851 1549.12 830.091 1557.26 846.381 1559.04C862.671 1560.82 890.011 1558.31 905.251 1552.28C924.621 1544.61 937.071 1546.79 946.401 1528.16C955.671 1509.64 946.191 1467.46 926.961 1459.66ZM469.161 1069.47C468.071 1073.1 464.831 1075.64 461.531 1077.49C454.791 1081.27 447.181 1083.16 439.611 1084.64C436.481 1085.25 433.111 1085.77 430.221 1084.42C427.781 1083.28 426.121 1080.98 424.641 1078.73C416.601 1066.42 411.171 1052.41 411.331 1035.72C415.581 1032.34 420.281 1029.55 425.261 1027.41C429.291 1025.66 433.511 1024.35 437.821 1023.49C442.231 1022.6 446.731 1022.19 451.221 1022.29C452.981 1022.33 454.871 1022.49 456.251 1023.6C457.411 1024.54 458.001 1026.01 458.531 1027.41C462.611 1038.21 466.001 1049.26 468.671 1060.49C469.381 1063.44 470.031 1066.56 469.161 1069.47Z" fill="white"/>
<path d="M946.402 1528.16C937.072 1546.79 924.622 1544.61 905.252 1552.28C890.012 1558.31 862.672 1560.82 846.382 1559.04C830.092 1557.26 823.852 1549.12 817.262 1534.11C810.902 1519.61 806.712 1492.19 818.772 1478.07C842.792 1473.44 866.372 1466.6 890.512 1462.68C902.512 1460.73 914.792 1459.52 926.962 1459.66C946.192 1467.46 955.672 1509.64 946.402 1528.16Z" fill="#BBBBBB"/>
<path d="M181.721 1534.11C175.141 1549.12 168.901 1557.26 152.611 1559.04C136.321 1560.82 108.971 1558.31 93.7414 1552.28C74.3714 1544.61 61.9114 1546.79 52.5914 1528.16C43.2614 1509.53 52.9014 1466.98 72.3614 1459.53C72.3014 1459.46 72.2514 1459.39 72.2014 1459.32C81.5614 1457.61 91.1215 1456.89 100.631 1457.06C122.321 1457.45 143.771 1462.3 164.241 1469.51C169.401 1471.33 174.631 1473.39 179.481 1476C179.291 1476.22 179.111 1476.44 178.921 1476.67C192.551 1490.3 188.301 1519.11 181.721 1534.11Z" fill="#BBBBBB"/>
<path d="M783.961 1551.9C768.971 1589.26 736.251 1587.57 665.401 1591.87C647.141 1592.97 601.311 1597.93 550.371 1600.46C534.241 1601.62 517.001 1602.04 499.491 1601.95C482.511 1601.86 465.281 1601.29 448.611 1600.46C397.671 1597.93 351.841 1592.97 333.581 1591.87C262.731 1587.57 230.021 1589.26 215.031 1551.9C203.271 1522.61 208.311 1468.08 224.231 1445.08C236.751 1435.16 255.221 1429.39 271.221 1428.37C306.571 1426.13 343.831 1426.09 368.881 1424.5C499.761 1416.17 602.891 1417.28 733.231 1431.86C745.841 1433.27 759.281 1435.11 770.711 1440.18C789.751 1459.13 796.651 1520.25 783.961 1551.9Z" fill="#BBBBBB"/>
<path d="M499.181 732.756C476.051 686.776 449.852 642.086 420.772 599.046C416.582 592.846 411.882 586.316 404.532 583.536C398.152 581.116 390.902 581.976 384.142 583.256C363.102 587.236 342.901 594.916 324.951 605.756C318.241 609.806 311.691 614.466 307.611 620.806C303.531 627.156 302.391 635.536 306.731 642.026C302.311 639.796 296.752 640.216 292.122 642.036C287.482 643.856 283.581 646.926 279.801 649.986C271.791 656.496 263.991 663.216 256.421 670.146C249.581 676.406 242.561 683.496 241.491 692.306C240.201 702.896 248.291 712.956 258.431 718.156C268.571 723.356 280.452 724.706 291.992 725.926C332.701 730.216 373.461 734.086 414.221 737.946C424.601 738.926 434.991 739.916 445.431 740.006C455.011 740.086 464.582 739.416 474.132 738.746C484.112 738.026 494.101 737.326 499.181 732.756Z" fill="#BBBBBB"/>
<path d="M498.292 732.756C521.422 686.776 547.622 642.086 576.702 599.046C580.892 592.846 585.592 586.316 592.942 583.536C599.322 581.116 606.572 581.976 613.332 583.256C634.372 587.236 654.572 594.916 672.522 605.756C679.232 609.806 685.782 614.466 689.862 620.806C693.942 627.156 695.082 635.536 690.742 642.026C695.162 639.796 700.722 640.216 705.352 642.036C709.992 643.856 713.892 646.926 717.672 649.986C725.682 656.496 733.482 663.216 741.052 670.146C747.892 676.406 754.912 683.496 755.982 692.306C757.272 702.896 749.182 712.956 739.042 718.156C728.902 723.356 717.022 724.706 705.482 725.926C664.772 730.216 624.012 734.086 583.252 737.946C572.872 738.926 562.482 739.916 552.042 740.006C542.462 740.086 532.892 739.416 523.342 738.746C513.352 738.026 503.372 737.326 498.292 732.756Z" fill="#BBBBBB"/>
<path d="M457.241 727.436C456.311 738.256 449.351 747.986 449.071 758.836C440.241 803.236 431.521 847.066 427.961 891.496C424.421 935.696 426.091 980.726 437.821 1023.49C433.511 1024.35 429.292 1025.66 425.262 1027.41C401.462 929.536 422.691 826.336 443.921 727.016C444.651 723.616 446.622 721.886 448.522 720.626C450.422 719.366 453.071 718.956 454.951 720.256C457.121 721.746 457.461 724.806 457.241 727.436Z" fill="#B7B7B7"/>
<path d="M469.162 1069.47C468.072 1073.1 464.832 1075.64 461.532 1077.49C454.792 1081.27 447.182 1083.16 439.612 1084.64C436.482 1085.25 433.112 1085.77 430.222 1084.42C427.782 1083.28 426.122 1080.98 424.642 1078.73C416.602 1066.42 411.172 1052.41 411.332 1035.72C415.582 1032.34 420.282 1029.55 425.262 1027.41C429.292 1025.66 433.512 1024.35 437.822 1023.49C442.232 1022.6 446.732 1022.19 451.222 1022.29C452.982 1022.33 454.872 1022.49 456.252 1023.6C457.412 1024.54 458.002 1026.01 458.532 1027.41C462.612 1038.21 466.002 1049.26 468.672 1060.49C469.382 1063.44 470.032 1066.56 469.162 1069.47Z" fill="#707070"/>
<path d="M552.191 727.436C553.121 738.256 560.081 747.986 560.361 758.836C569.191 803.236 577.911 847.066 581.471 891.496C585.011 935.696 583.341 980.726 571.611 1023.49C575.921 1024.35 580.141 1025.66 584.171 1027.41C607.971 929.536 586.741 826.336 565.511 727.016C564.781 723.616 562.811 721.886 560.911 720.626C559.011 719.366 556.361 718.956 554.481 720.256C552.311 721.746 551.971 724.806 552.191 727.436Z" fill="#B7B7B7"/>
<path d="M540.271 1069.47C541.361 1073.1 544.601 1075.64 547.901 1077.49C554.641 1081.27 562.251 1083.16 569.821 1084.64C572.951 1085.25 576.321 1085.77 579.211 1084.42C581.651 1083.28 583.311 1080.98 584.791 1078.73C592.831 1066.42 598.261 1052.41 598.101 1035.72C593.851 1032.34 589.151 1029.55 584.171 1027.41C580.141 1025.66 575.921 1024.35 571.611 1023.49C567.201 1022.6 562.701 1022.19 558.211 1022.29C556.451 1022.33 554.561 1022.49 553.181 1023.6C552.021 1024.54 551.431 1026.01 550.901 1027.41C546.821 1038.21 543.431 1049.26 540.761 1060.49C540.051 1063.44 539.401 1066.56 540.271 1069.47Z" fill="#707070"/>
</svg>
