<svg width="988" height="988" viewBox="0 0 988 988" fill="none" xmlns="http://www.w3.org/2000/svg">
<path d="M54.5145 830.559C57.4934 842.715 62.97 853.849 76.0894 853.698C285.608 850.96 480.082 848.192 689.602 845.453C766.422 844.46 843.483 843.467 919.612 833.237C940.765 801.311 940.374 760.809 923.343 728.522C919.01 728.522 914.647 728.552 910.314 728.582C528.919 777.72 397.304 770.739 74.5849 784.821C71.3953 784.52 68.3559 785.483 65.6779 787.228C62.3679 789.184 59.5095 792.193 57.2227 795.353C49.8806 805.583 51.5656 818.402 54.5145 830.559Z" fill="black"/>
<path d="M71.4552 786.958C74.1333 785.213 77.1723 784.249 80.3619 784.55C401.486 784.55 575.769 772.153 916.091 728.311C905.56 686.666 898.789 646.526 868.729 611.952C717.224 630.337 642.088 639.154 488.056 640.117C487.484 640.147 486.913 640.117 486.311 640.147C481.948 622.063 474.877 604.58 463.533 588C427.244 598.592 391.285 610.237 355.689 622.875C298.577 643.186 215.287 666.114 160.282 691.631C132.9 704.329 104.825 718.381 86.0189 741.912C77.8042 752.263 71.5156 764.661 70.8536 777.81C70.7031 780.849 70.9136 783.949 71.4552 786.958Z" fill="#3D3D3D"/>
<path d="M355.689 622.875C361.767 647.308 369.561 671.32 378.889 694.73C417.344 690.277 455.348 682.032 494.586 670.117C493.112 660.006 490.915 649.986 488.056 640.117C487.485 640.147 486.913 640.117 486.311 640.147C481.948 622.063 474.877 604.58 463.533 588C427.244 598.622 391.316 610.237 355.689 622.875Z" fill="black"/>
</svg>
