<svg width="988" height="988" viewBox="0 0 988 988" fill="none" xmlns="http://www.w3.org/2000/svg">
<path d="M650.787 403.263C634.346 585.814 643.486 649.252 638.537 736.504C633.582 823.755 620.77 965 620.77 965L575.393 964.188C575.393 964.188 553.048 794.86 549.693 732.939C546.332 671.024 547.52 509.135 528.924 413.239C510.327 317.337 505.766 202.641 505.766 202.641C505.766 202.641 503.898 202.909 497.391 202.909C496.34 202.909 494.901 203.518 493.707 203.017C492.513 203.518 491.666 202.909 490.615 202.909C484.102 202.909 482.233 202.641 482.233 202.641C482.233 202.641 477.672 317.337 459.076 413.239C440.48 509.135 441.668 671.024 438.313 732.939C434.952 794.86 412.606 964.188 412.606 964.188L367.229 965C367.229 965 354.418 823.755 349.469 736.504C344.514 649.252 353.654 585.814 337.212 403.263C320.771 220.718 357.761 66.0826 357.761 66.0826C364.781 37.7608 373.724 22 373.724 22H614.281C614.281 22 623.218 37.7608 630.245 66.0826C630.245 66.0826 667.228 220.718 650.787 403.263Z" fill="black"/>
</svg>
