<svg width="988" height="988" viewBox="0 0 988 988" fill="none" xmlns="http://www.w3.org/2000/svg">
<path d="M691.471 960.919C691.471 960.919 552.683 960.919 549.977 965C533.704 690.966 524.223 483.704 508.024 210.754C508.111 209.552 507.436 208.394 506.507 207.626C505.584 206.859 504.433 206.413 503.3 206.023C500.408 205.032 497.423 204.295 494.358 203.725C491.286 204.295 488.302 205.032 485.41 206.023C484.271 206.413 483.125 206.859 482.202 207.626C481.273 208.394 480.592 209.552 480.685 210.754C464.486 483.704 455.006 690.966 438.732 965C436.026 960.919 296 960.919 296 960.919C296 960.919 298.025 702.657 301.821 573.523C302.83 387.946 308.032 199.124 363.403 22C369.899 24.0125 432.788 24.415 475.546 24.4522C483.441 24.4646 490.587 24.4584 496.482 24.4522C496.668 24.4584 496.86 24.4584 497.045 24.4522C501.869 24.4646 507.312 24.4646 513.164 24.4522C555.922 24.415 618.191 24.0125 624.687 22C680.059 199.124 685.879 387.946 686.889 573.523C690.685 702.657 691.471 960.919 691.471 960.919Z" fill="black"/>
</svg>
