<svg width="1000" height="3200" viewBox="0 0 1000 3200" fill="none" xmlns="http://www.w3.org/2000/svg">
<path d="M762.316 1945.63C757.206 2002.38 753.566 2052.25 750.986 2096.78H575.766C571.506 2048.04 565.846 2001.85 558.186 1962.34C527.036 1801.7 519.396 1609.58 519.396 1609.58C519.396 1609.58 516.266 1610.03 505.366 1610.03C503.606 1610.03 501.196 1611.05 499.196 1610.21C497.196 1611.05 495.776 1610.03 494.016 1610.03C483.106 1610.03 479.976 1609.58 479.976 1609.58C479.976 1609.58 472.336 1801.7 441.186 1962.34C433.526 2001.85 427.876 2048.04 423.616 2096.78H248.386C245.806 2052.25 242.166 2002.38 237.056 1945.63C209.516 1639.86 271.476 1380.84 271.476 1380.84C283.236 1333.4 298.216 1307 298.216 1307H701.166C701.166 1307 716.136 1333.4 727.906 1380.84C727.906 1380.84 789.856 1639.86 762.316 1945.63Z" fill="white"/>
</svg>
