<svg width="1000" height="3200" viewBox="0 0 1000 3200" fill="none" xmlns="http://www.w3.org/2000/svg">
<path d="M819.65 2838.27C819.65 2838.27 595.52 2838.27 591.15 2844.86C564.87 2402.32 549.56 2067.61 523.4 1626.82C523.54 1624.88 522.45 1623.01 520.95 1621.77C519.46 1620.53 517.6 1619.81 515.77 1619.18C511.1 1617.58 506.28 1616.39 501.33 1615.47C496.37 1616.39 491.55 1617.58 486.88 1619.18C485.04 1619.81 483.19 1620.53 481.7 1621.77C480.2 1623.01 479.1 1624.88 479.25 1626.82C453.09 2067.61 437.78 2402.32 411.5 2844.86C407.13 2838.27 181 2838.27 181 2838.27C181 2838.27 184.27 2421.2 190.4 2212.66C192.03 1912.97 200.43 1608.04 289.85 1322C300.34 1325.25 401.9 1325.9 470.95 1325.96C483.7 1325.98 495.24 1325.97 504.76 1325.96C505.06 1325.97 505.37 1325.97 505.67 1325.96C513.46 1325.98 522.25 1325.98 531.7 1325.96C600.75 1325.9 701.31 1325.25 711.8 1322C801.22 1608.04 810.62 1912.97 812.25 2212.66C818.38 2421.2 819.65 2838.27 819.65 2838.27Z" fill="white"/>
</svg>
