<svg width="1000" height="3200" viewBox="0 0 1000 3200" fill="none" xmlns="http://www.w3.org/2000/svg">
<path d="M674.46 1205.92C701.32 1309.81 728.37 1368.56 744.08 1465.77C680.67 1464.32 614.53 1466.45 547.72 1463.91C515.86 1462.7 483.97 1462.7 452.11 1463.91C385.32 1466.45 319.22 1464.33 255.81 1465.77C271.52 1368.56 298.57 1309.81 325.43 1205.92C358.8 1076.85 339.21 1021.62 330.31 1004.98C330.31 1004.89 330.32 1004.79 330.32 1004.7C329.36 1002.97 328.95 1001.14 328.94 999.25C291.68 943.37 248.72 891.29 203 844.38C205.17 833.77 207.42 823.34 209.76 813.09C233.44 709.36 253.74 682.89 311.64 658.28C341.7 645.5 378.15 629.1 407.03 614C430.34 640.29 464.83 656.53 499.95 657.6C535.07 656.52 569.56 640.29 592.86 614C621.74 629.1 658.19 645.5 688.25 658.28C746.15 682.89 766.45 709.36 790.13 813.09C792.47 823.34 794.72 833.77 796.89 844.38C751.17 891.29 708.21 943.37 670.95 999.25C670.94 1001.14 670.53 1002.97 669.57 1004.7C669.57 1004.79 669.58 1004.89 669.58 1004.98C660.68 1021.62 641.09 1076.85 674.46 1205.92Z" fill="white"/>
</svg>
