<svg width="988" height="988" viewBox="0 0 988 988" fill="none" xmlns="http://www.w3.org/2000/svg">
<path d="M688.863 540.667L829 448.125C829 448.125 825.084 416.365 807.458 350.623C791.05 289.442 739.612 179.863 739.612 179.863L738.198 179.835C722.367 145.195 702.21 129.811 667.637 115.134C639.676 103.262 605.772 88.0272 578.909 74C557.236 98.4221 525.156 113.499 492.488 114.502C459.821 113.508 427.74 98.4221 406.058 74C379.196 88.0272 345.291 103.262 317.331 115.134C275.679 132.812 254.945 151.53 237.496 203.691C237.496 203.709 237.486 203.719 237.486 203.737C216.828 252.163 192.179 307.213 180.542 350.623C162.916 416.365 159 448.125 159 448.125L299.128 540.667L320.642 512.019C320.642 512.019 266.014 768.047 243.384 902.317L491.53 912.889L493.995 913L496.46 912.889L744.607 902.317C721.986 768.047 667.358 512.019 667.358 512.019L688.863 540.667ZM492.209 174.392L494.005 174.429L495.79 174.392V174.475L494.005 174.429L492.209 174.475V174.392Z" fill="black"/>
</svg>
