<svg width="988" height="988" viewBox="0 0 988 988" fill="none" xmlns="http://www.w3.org/2000/svg">
<path d="M536.549 498.737C553.667 496.974 570.699 499.114 587.065 507.037C617.89 521.032 649.784 533.899 682.373 545.668C688.503 536.733 693.881 527.278 698.363 516.984C710.855 488.125 715.453 452.963 706.315 421.445C697.178 389.926 672.888 363.612 645.331 361.183C624.57 359.391 604.531 370.928 589.379 387.353C563.239 415.748 549.821 456.867 537.214 496.569C536.954 497.263 536.809 498.043 536.549 498.737Z" fill="#3D3D3D"/>
<path d="M61.6032 854.376C285.182 850.762 508.848 847.205 732.456 843.678C798.703 842.579 865.643 841.422 929.461 822.598C930.271 791.455 929.519 762.915 928.709 734.346C928.536 728.013 928.304 721.449 926.02 715.637C923.678 709.825 918.675 704.967 913.47 705.632C913.441 705.372 913.47 705.025 913.441 704.736C912.95 648.321 900.545 594.334 876.255 549.138C794.77 541.851 713.631 523.75 638.074 496.685C614.652 488.241 591.721 478.988 569.571 468.925C557.803 463.229 545.571 461.697 533.253 462.969C512.115 465.196 490.949 475.692 472.067 487.692C465.185 492.029 458.418 496.598 451.739 501.341C441.502 508.512 431.526 516 421.579 523.808C414.379 529.389 407.295 535.115 400.181 540.956C390.581 548.821 381.039 556.802 371.496 564.811C365.54 569.814 359.525 574.816 353.569 579.732C344.229 587.51 334.889 595.202 325.433 602.633C319.361 607.491 313.26 612.234 307.101 616.831C297.963 623.627 288.739 630.219 279.399 636.407C258.232 650.547 236.256 662.749 213.037 672.003C190.858 680.822 167.696 686.779 146.443 698.317C125.19 709.854 105.44 728.158 93.7868 754.067C89.1024 752.505 84.1865 753.315 79.8202 755.773C75.8876 757.913 72.3888 761.325 69.7574 765.46C64.2634 774.105 61.9789 785.209 60.3018 796.024C57.4391 814.183 55.9935 832.718 61.6032 854.376Z" fill="black"/>
<path d="M61.6031 854.376C285.182 850.761 508.848 847.205 732.456 843.677C798.702 842.578 865.643 841.422 929.461 822.597C930.27 791.455 929.519 762.914 928.709 734.345C928.536 728.013 928.304 721.449 926.02 715.637C923.677 709.825 918.675 704.967 913.47 705.632C913.441 705.372 913.47 705.025 913.441 704.735C739.338 719.54 565.263 734.375 391.13 749.18C288.623 757.941 185.624 766.645 82.683 756.09C81.6999 755.975 80.7456 755.859 79.7625 755.802C75.8299 757.941 72.3307 761.353 69.6994 765.488C64.2053 774.134 61.9213 785.238 60.2441 796.052C57.4393 814.183 55.9934 832.718 61.6031 854.376Z" fill="#3D3D3D"/>
<path d="M325.434 602.662C330.985 613.563 336.508 624.436 342.002 635.337C351.863 634.007 361.116 627.269 366.784 617.322C362.764 604.628 358.398 592.108 353.569 579.731C344.229 587.51 334.889 595.201 325.434 602.662Z" fill="#3D3D3D"/>
<path d="M279.37 636.436C282.84 643.174 286.223 649.911 289.635 656.62C299.496 655.289 308.777 648.639 314.416 638.605C312.103 631.289 309.674 624.06 307.072 616.831C297.963 623.655 288.739 630.248 279.37 636.436Z" fill="#3D3D3D"/>
<path d="M371.496 564.811C378.291 578.199 385.087 591.616 391.882 605.004C401.8 603.674 411.024 597.023 416.721 586.989C411.776 571.375 406.253 555.991 400.181 540.955C390.581 548.82 381.038 556.83 371.496 564.811Z" fill="#3D3D3D"/>
<path d="M421.58 523.807C430.254 540.868 438.871 558.016 447.517 575.076C457.378 573.746 466.631 567.008 472.356 557.061C466.341 538.034 459.459 519.442 451.739 501.34C441.531 508.483 431.527 515.971 421.58 523.807Z" fill="#3D3D3D"/>
</svg>
