<svg width="988" height="988" viewBox="0 0 988 988" fill="none" xmlns="http://www.w3.org/2000/svg">
<path d="M91.008 795.628C90.7854 805.727 95.2367 815.075 102.136 822.503C107.283 828.067 113.765 832.546 120.693 835.523C136.884 842.45 159.279 846.678 176.806 848.403C297.826 860.199 366.125 849.683 366.125 849.683C366.125 849.683 429.5 844.147 482.721 831.405C539.419 817.857 644.553 799.801 676.073 790.898C702.642 783.415 741.201 784.305 756.864 807.034C756.864 824.005 756.307 816.549 757.253 835.606C801.711 846.54 837.015 846.289 885.979 838.416C885.979 786.698 892.795 738.039 895.382 687.907C896.69 662.284 896.884 636.3 894.492 609.342C889.456 552.421 868.702 498.31 853.318 443.281C837.933 388.28 838.461 339.873 845.639 274.912C774.947 248.844 666.559 228.952 590.386 224C607.162 353.755 539.975 476.443 439.654 565.664C402.625 598.631 386.517 619.441 340.919 638.971C256.095 675.36 206.046 693.666 121.193 730.055C105.864 738.374 91.5366 771.953 91.008 795.628Z" fill="black"/>
<path d="M102.136 822.503C107.283 828.067 113.765 832.546 120.693 835.523C136.884 842.45 159.279 846.679 176.806 848.404C297.826 860.2 366.125 849.684 366.125 849.684C366.125 849.684 429.5 844.148 482.721 831.406C539.419 817.857 644.553 799.802 676.073 790.899C702.642 783.415 741.201 784.306 756.864 807.035C756.864 824.006 756.308 816.55 757.253 835.607C801.711 846.54 837.015 846.29 885.979 838.417C885.979 786.698 892.795 738.04 895.382 687.907C629.585 684.68 373.859 832.963 106.254 822.642C104.89 822.586 103.527 822.531 102.136 822.503Z" fill="#3D3D3D"/>
</svg>
