<svg width="988" height="988" viewBox="0 0 988 988" fill="none" xmlns="http://www.w3.org/2000/svg">
<path d="M99.0373 842.585C102.352 846.552 108.167 846.987 113.303 847.123C301.769 851.824 490.208 856.524 662.099 852.231C662.045 852.068 661.99 851.878 661.882 851.742C646.013 811.718 629.819 771.231 608.353 734.005C599.875 719.142 590.419 704.795 579.903 691.209C542.813 643.44 488.903 605.344 428.554 601.35C387.035 598.633 346.06 612.083 308.263 629.501C220.171 670.042 140.611 735.88 99.9882 823.972C97.2439 829.896 94.8799 837.476 99.0373 842.585Z" fill="#3D3D3D"/>
<path d="M608.353 733.978C629.819 771.204 646.013 811.69 661.882 851.715C734.893 851.878 807.932 848.101 880.509 840.493C896.025 827.233 893.525 789.3 885.101 770.66C876.678 752.074 861.652 747.102 842.495 739.956C823.339 732.864 778.233 728.815 757.8 727.457C699.026 723.517 667.18 730.663 608.353 733.978Z" fill="black"/>
</svg>
