<svg width="1000" height="3200" viewBox="0 0 1000 3200" fill="none" xmlns="http://www.w3.org/2000/svg">
<path d="M743.836 2928.63C737.916 2928.02 732.026 2928.76 726.366 2931.5C715.706 2936.34 704.676 2940.79 693.406 2944.86C691.286 2941.77 689.426 2938.5 687.876 2934.94C683.556 2924.96 681.966 2912.8 685.126 2901.9C688.286 2891 696.686 2881.9 706.216 2881.06C713.396 2880.44 720.326 2884.43 725.566 2890.11C734.606 2899.93 739.246 2914.15 743.606 2927.88C743.686 2928.12 743.746 2928.39 743.836 2928.63Z" fill="#CDCDCD"/>
<path d="M908.086 3051.62C830.766 3050.37 753.416 3049.14 676.086 3047.92C653.176 3047.54 630.026 3047.14 607.956 3040.63C607.676 3029.86 607.936 3019.99 608.216 3010.11C608.276 3007.92 608.356 3005.65 609.146 3003.64C609.956 3001.63 611.686 2999.95 613.486 3000.18C613.496 3000.09 613.486 2999.97 613.496 2999.87C613.666 2980.36 617.956 2961.69 626.356 2946.06C654.536 2943.54 682.596 2937.28 708.726 2927.92C716.826 2925 724.756 2921.8 732.416 2918.32C736.486 2916.35 740.716 2915.82 744.976 2916.26C752.286 2917.03 759.606 2920.66 766.136 2924.81C768.506 2926.31 770.856 2927.89 773.166 2929.53C776.706 2932.01 780.156 2934.6 783.596 2937.3C786.086 2939.23 788.536 2941.21 790.996 2943.23C794.316 2945.95 797.616 2948.71 800.916 2951.48C802.976 2953.21 805.056 2954.94 807.116 2956.64C810.346 2959.33 813.576 2961.99 816.846 2964.56C818.946 2966.24 821.056 2967.88 823.186 2969.47C826.346 2971.82 829.536 2974.1 832.766 2976.24C840.086 2981.13 847.686 2985.35 855.716 2988.55C863.386 2991.6 871.396 2993.66 878.746 2997.65C886.096 3001.64 892.926 3007.97 896.956 3016.93C898.576 3016.39 900.276 3016.67 901.786 3017.52C903.146 3018.26 904.356 3019.44 905.266 3020.87C907.166 3023.86 907.956 3027.7 908.536 3031.44C909.516 3037.72 910.026 3044.13 908.086 3051.62Z" fill="white"/>
<path d="M908.086 3051.62C830.766 3050.37 753.416 3049.14 676.086 3047.92C653.176 3047.54 630.026 3047.14 607.956 3040.63C607.676 3029.86 607.936 3019.99 608.216 3010.11C608.276 3007.92 608.356 3005.65 609.146 3003.64C609.956 3001.63 611.686 2999.95 613.486 3000.18C613.496 3000.09 613.486 2999.97 613.496 2999.87C673.706 3004.99 733.906 3010.12 794.126 3015.24C829.576 3018.27 865.196 3021.28 900.786 3017.63C901.126 3017.59 901.456 3017.55 901.796 3017.53C903.156 3018.27 904.366 3019.45 905.276 3020.88C907.176 3023.87 907.966 3027.71 908.546 3031.45C909.516 3037.72 910.026 3044.13 908.086 3051.62Z" fill="#515151"/>
<path d="M816.846 2964.57C814.926 2968.34 813.016 2972.1 811.116 2975.87C807.706 2975.41 804.506 2973.08 802.546 2969.64C803.936 2965.25 805.446 2960.92 807.116 2956.64C810.336 2959.33 813.566 2961.99 816.846 2964.57Z" fill="#CDCDCD"/>
<path d="M832.766 2976.25C831.566 2978.58 830.396 2980.91 829.216 2983.23C825.806 2982.77 822.596 2980.47 820.646 2977C821.446 2974.47 822.286 2971.97 823.186 2969.47C826.346 2971.83 829.536 2974.11 832.766 2976.25Z" fill="#CDCDCD"/>
<path d="M800.916 2951.48C798.566 2956.11 796.216 2960.75 793.866 2965.38C790.436 2964.92 787.246 2962.62 785.276 2959.15C786.986 2953.75 788.896 2948.43 790.996 2943.23C794.316 2945.95 797.616 2948.72 800.916 2951.48Z" fill="#CDCDCD"/>
<path d="M783.586 2937.3C780.586 2943.2 777.606 2949.13 774.616 2955.03C771.206 2954.57 768.006 2952.24 766.026 2948.8C768.106 2942.22 770.486 2935.79 773.156 2929.53C776.696 2932 780.146 2934.59 783.586 2937.3Z" fill="#CDCDCD"/>
<path d="M256.576 2928.63C262.496 2928.02 268.386 2928.76 274.046 2931.5C284.706 2936.34 295.736 2940.79 307.006 2944.86C309.126 2941.77 310.986 2938.5 312.536 2934.94C316.856 2924.96 318.446 2912.8 315.286 2901.9C312.126 2891 303.726 2881.9 294.196 2881.06C287.016 2880.44 280.086 2884.43 274.846 2890.11C265.806 2899.93 261.166 2914.15 256.806 2927.88C256.716 2928.12 256.666 2928.39 256.576 2928.63Z" fill="#CDCDCD"/>
<path d="M92.3263 3051.62C169.646 3050.37 246.996 3049.14 324.326 3047.92C347.236 3047.54 370.386 3047.14 392.456 3040.63C392.736 3029.86 392.476 3019.99 392.196 3010.11C392.136 3007.92 392.056 3005.65 391.266 3003.64C390.456 3001.63 388.726 2999.95 386.926 3000.18C386.916 3000.09 386.926 2999.97 386.916 2999.87C386.746 2980.36 382.456 2961.69 374.056 2946.06C345.876 2943.54 317.816 2937.28 291.686 2927.92C283.586 2925 275.656 2921.8 267.996 2918.32C263.926 2916.35 259.696 2915.82 255.436 2916.26C248.126 2917.03 240.806 2920.66 234.276 2924.81C231.896 2926.31 229.556 2927.89 227.246 2929.53C223.706 2932.01 220.256 2934.6 216.816 2937.3C214.326 2939.23 211.876 2941.21 209.416 2943.23C206.096 2945.95 202.796 2948.71 199.496 2951.48C197.436 2953.21 195.356 2954.94 193.296 2956.64C190.066 2959.33 186.836 2961.99 183.566 2964.56C181.466 2966.24 179.356 2967.88 177.226 2969.47C174.066 2971.82 170.876 2974.1 167.646 2976.24C160.326 2981.13 152.726 2985.35 144.696 2988.55C137.026 2991.6 129.016 2993.66 121.666 2997.65C114.316 3001.64 107.486 3007.97 103.456 3016.93C101.836 3016.39 100.136 3016.67 98.6262 3017.52C97.2662 3018.26 96.0563 3019.44 95.1463 3020.87C93.2463 3023.86 92.4562 3027.7 91.8762 3031.44C90.8862 3037.72 90.3863 3044.13 92.3263 3051.62Z" fill="white"/>
<path d="M92.3263 3051.62C169.646 3050.37 246.996 3049.14 324.326 3047.92C347.236 3047.54 370.386 3047.14 392.456 3040.63C392.736 3029.86 392.476 3019.99 392.196 3010.11C392.136 3007.92 392.056 3005.65 391.266 3003.64C390.456 3001.63 388.726 2999.95 386.926 3000.18C386.916 3000.09 386.926 2999.97 386.916 2999.87C326.706 3004.99 266.506 3010.12 206.286 3015.24C170.836 3018.27 135.216 3021.28 99.6163 3017.63C99.2763 3017.59 98.9463 3017.55 98.6063 3017.53C97.2463 3018.27 96.0362 3019.45 95.1262 3020.88C93.2262 3023.87 92.4363 3027.71 91.8563 3031.45C90.8863 3037.72 90.3863 3044.13 92.3263 3051.62Z" fill="#515151"/>
<path d="M183.566 2964.57C185.486 2968.34 187.396 2972.1 189.296 2975.87C192.706 2975.41 195.906 2973.08 197.866 2969.64C196.476 2965.25 194.966 2960.92 193.296 2956.64C190.066 2959.33 186.836 2961.99 183.566 2964.57Z" fill="#CDCDCD"/>
<path d="M167.636 2976.25C168.836 2978.58 170.006 2980.91 171.186 2983.23C174.596 2982.77 177.806 2980.47 179.756 2977C178.956 2974.47 178.116 2971.97 177.216 2969.47C174.066 2971.83 170.876 2974.11 167.636 2976.25Z" fill="#CDCDCD"/>
<path d="M199.496 2951.48C201.846 2956.11 204.196 2960.75 206.546 2965.38C209.976 2964.92 213.166 2962.62 215.136 2959.15C213.426 2953.75 211.516 2948.43 209.416 2943.23C206.096 2945.95 202.796 2948.72 199.496 2951.48Z" fill="#CDCDCD"/>
<path d="M216.816 2937.3C219.816 2943.2 222.796 2949.13 225.786 2955.03C229.196 2954.57 232.396 2952.24 234.376 2948.8C232.296 2942.22 229.916 2935.79 227.246 2929.53C223.716 2932 220.256 2934.59 216.816 2937.3Z" fill="#CDCDCD"/>
</svg>
