<svg width="1000" height="3200" viewBox="0 0 1000 3200" fill="none" xmlns="http://www.w3.org/2000/svg">
<path d="M942.172 1504.08C939.272 1509.84 934.142 1514.12 928.862 1517.82C906.172 1533.74 878.082 1541.82 850.402 1540.4C840.392 1539.88 829.662 1537.75 822.902 1530.36C817.612 1524.57 815.672 1516.56 813.922 1508.92C810.452 1493.75 806.952 1478.24 808.842 1461.41C808.522 1460.67 808.212 1459.94 807.892 1459.2C779.662 1393.42 758.012 1324.8 739.932 1253.4C743.502 1303.41 748.792 1353.3 756.082 1400.16C756.102 1400.31 756.132 1400.46 756.152 1400.61C767.012 1409.91 769.072 1425.66 770.132 1439.92C771.952 1464.38 773.032 1488.9 773.372 1513.42C773.502 1522.39 773.482 1531.59 770.332 1539.99C767.192 1548.38 760.212 1555.93 751.332 1557.17C741.202 1558.76 731.082 1560.35 720.952 1561.94C661.022 1571.36 606.102 1577.62 542.082 1584.15C511.542 1587.27 480.761 1587.6 450.161 1585.05C389.361 1579.97 334.741 1570.85 278.051 1561.94C267.921 1560.35 257.801 1558.76 247.671 1557.17C238.791 1555.93 231.811 1548.38 228.661 1539.99C225.521 1531.59 225.502 1522.39 225.632 1513.42C225.972 1488.9 227.052 1464.38 228.872 1439.92C229.842 1426.93 231.631 1412.7 240.161 1403.24C240.991 1402.31 241.882 1401.44 242.852 1400.61C250.182 1353.62 255.492 1303.57 259.072 1253.4C240.822 1325.5 218.912 1394.76 190.282 1461.12C190.242 1461.22 190.201 1461.31 190.161 1461.41C192.051 1478.24 188.552 1493.75 185.082 1508.92C183.332 1516.56 181.392 1524.57 176.102 1530.36C169.342 1537.75 158.602 1539.88 148.602 1540.4C120.922 1541.82 92.8316 1533.74 70.1416 1517.82C64.8616 1514.12 59.7315 1509.84 56.8315 1504.08C52.5715 1495.59 53.8715 1485.45 55.8515 1476.17C59.2615 1460.22 64.3916 1444.64 71.1416 1429.78C71.2116 1429.62 71.2815 1429.47 71.3515 1429.31C88.0615 1244.58 119.872 1061.33 166.572 881.95C179.332 832.94 193.502 783.5 219.902 740.28C246.002 697.57 283.872 662.21 329.272 639.08C340.712 633.25 352.632 628.2 364.952 624C384.192 645.64 404.232 667.89 430.602 679.84C432.442 680.67 434.301 681.45 436.181 682.18C439.501 683.47 442.871 684.59 446.291 685.59C462.961 691.58 481.192 693.47 499.502 693.02C517.812 693.47 536.042 691.58 552.712 685.59C556.132 684.59 559.502 683.47 562.822 682.18C564.702 681.45 566.562 680.68 568.402 679.84C594.772 667.89 614.812 645.64 634.052 624C646.282 628.17 658.112 633.17 669.472 638.95C714.982 662.08 752.952 697.49 779.092 740.28C805.502 783.5 819.672 832.94 832.432 881.95C879.082 1061.14 910.872 1244.2 927.602 1428.73C927.622 1428.92 927.632 1429.12 927.652 1429.31C934.502 1444.31 939.702 1460.05 943.152 1476.17C945.132 1485.45 946.432 1495.59 942.172 1504.08Z" fill="white"/>
<path d="M942.172 1504.08C939.272 1509.84 934.142 1514.12 928.862 1517.82C906.172 1533.74 878.082 1541.82 850.402 1540.4C840.392 1539.88 829.662 1537.75 822.902 1530.36C817.612 1524.57 815.672 1516.56 813.922 1508.92C810.452 1493.75 806.952 1478.24 808.842 1461.41C808.522 1460.67 808.212 1459.94 807.892 1459.2C847.802 1449.05 887.692 1438.89 927.602 1428.73C927.622 1428.92 927.632 1429.12 927.652 1429.31C934.502 1444.31 939.702 1460.05 943.152 1476.17C945.132 1485.45 946.432 1495.59 942.172 1504.08Z" fill="#BBBBBB"/>
<path d="M185.082 1508.92C183.332 1516.56 181.392 1524.57 176.102 1530.36C169.342 1537.75 158.602 1539.88 148.602 1540.4C120.922 1541.82 92.8316 1533.74 70.1416 1517.82C64.8616 1514.12 59.7315 1509.84 56.8315 1504.08C52.5715 1495.59 53.8715 1485.45 55.8515 1476.17C59.2615 1460.22 64.3916 1444.64 71.1416 1429.78C89.2216 1430.34 107.102 1435.91 124.322 1441.92C145.112 1449.19 154.172 1451.73 183.572 1459.3C185.062 1459.69 187.502 1460.33 190.282 1461.12C190.242 1461.22 190.201 1461.31 190.161 1461.41C192.051 1478.24 188.552 1493.75 185.082 1508.92Z" fill="#BBBBBB"/>
<path d="M770.331 1539.99C767.191 1548.38 760.211 1555.93 751.331 1557.17C741.201 1558.76 731.081 1560.35 720.951 1561.94C661.021 1571.36 606.101 1577.62 542.081 1584.15C511.541 1587.27 480.761 1587.6 450.161 1585.05C389.361 1579.97 334.741 1570.85 278.051 1561.94C267.921 1560.35 257.801 1558.76 247.671 1557.17C238.791 1555.93 231.811 1548.38 228.661 1539.99C225.521 1531.59 225.502 1522.39 225.632 1513.42C225.972 1488.9 227.052 1464.38 228.872 1439.92C229.842 1426.93 231.631 1412.7 240.161 1403.24C251.161 1399.61 263.141 1399.18 274.821 1398.96C405.841 1396.52 548.401 1397.79 653.811 1401.09C657.151 1401.19 660.491 1401.17 663.821 1401C707.441 1398.88 720.861 1399.5 743.411 1399.21C747.641 1399.16 752.001 1399.21 756.081 1400.16C756.101 1400.31 756.132 1400.46 756.152 1400.61C767.012 1409.91 769.072 1425.66 770.132 1439.92C771.952 1464.38 773.032 1488.9 773.372 1513.42C773.502 1522.39 773.481 1531.59 770.331 1539.99Z" fill="#BBBBBB"/>
<path d="M669.471 638.95C644.491 684.38 592.281 749.92 498.981 749.92C391.691 749.92 345.571 675.9 329.271 639.08C340.711 633.25 352.631 628.2 364.951 624C384.191 645.64 404.231 667.89 430.601 679.84C432.441 680.67 434.301 681.45 436.181 682.18C439.501 683.47 442.871 684.59 446.291 685.59C462.961 691.58 481.191 693.47 499.501 693.02C517.811 693.47 536.041 691.58 552.711 685.59C556.131 684.59 559.501 683.47 562.821 682.18C564.701 681.45 566.561 680.68 568.401 679.84C594.771 667.89 614.811 645.64 634.051 624C646.281 628.17 658.111 633.17 669.471 638.95Z" fill="#BBBBBB"/>
</svg>
