<svg width="1000" height="3200" viewBox="0 0 1000 3200" fill="none" xmlns="http://www.w3.org/2000/svg">
<path d="M913.167 1461.66C913.057 1461.62 912.947 1461.57 912.837 1461.53C929.347 1441.07 925.717 1411.51 921.037 1385.63C890.237 1215.21 851.347 1046.36 812.477 877.586C797.697 813.416 784.067 739.796 734.827 696.076C694.297 660.086 638.877 686.766 599.767 693.466C579.997 696.846 563.857 698.616 548.867 702.906C546.497 708.546 543.817 714.026 540.417 719.096C536.147 725.466 530.587 731.196 523.967 734.966C567.677 1019.66 580.247 1309.31 559.047 1601.18C600.627 1598.53 636.087 1594.81 651.607 1593.87C722.457 1589.57 755.177 1591.26 770.167 1553.9C782.857 1522.25 775.957 1461.13 756.917 1442.18C755.667 1440.92 754.367 1439.85 753.007 1438.99C741.117 1391.92 722.677 1326.73 727.887 1278.45C781.317 1490.17 788.237 1456.55 806.267 1478.67C805.817 1479.12 805.387 1479.59 804.977 1480.07C792.917 1494.19 797.107 1521.61 803.467 1536.11C810.057 1551.12 816.297 1559.26 832.587 1561.04C848.877 1562.82 876.217 1560.31 891.457 1554.28C910.827 1546.61 923.277 1548.79 932.607 1530.16C941.877 1511.64 932.397 1469.46 913.167 1461.66Z" fill="white"/>
<path d="M932.607 1530.16C923.277 1548.79 910.827 1546.61 891.457 1554.28C876.217 1560.31 848.877 1562.82 832.587 1561.04C816.297 1559.26 810.057 1551.12 803.467 1536.11C797.107 1521.61 792.917 1494.19 804.977 1480.07C828.997 1475.44 852.577 1468.6 876.717 1464.68C888.717 1462.73 900.997 1461.52 913.167 1461.66C932.397 1469.46 941.877 1511.64 932.607 1530.16Z" fill="#BBBBBB"/>
<path d="M770.167 1553.9C755.177 1591.26 722.457 1589.57 651.607 1593.87C650.877 1593.91 650.107 1593.96 649.297 1594.02C648.757 1594.06 648.187 1594.1 647.607 1594.14C646.877 1594.19 646.117 1594.25 645.327 1594.31C644.867 1594.35 644.397 1594.38 643.917 1594.42C641.637 1594.6 639.137 1594.81 636.447 1595.04C635.817 1595.09 635.167 1595.14 634.517 1595.2C628.807 1595.69 622.277 1596.27 615.097 1596.88C613.097 1597.06 611.047 1597.23 608.947 1597.41C594.257 1598.66 577.237 1600.02 559.047 1601.18C563.387 1541.49 566.307 1481.88 567.837 1422.4C616.307 1424.11 665.547 1427.83 719.437 1433.86C732.047 1435.27 745.487 1437.11 756.917 1442.18C775.957 1461.13 782.857 1522.25 770.167 1553.9Z" fill="#BBBBBB"/>
<path d="M523.037 734.756C546.167 688.776 572.367 644.086 601.447 601.046C605.637 594.846 610.337 588.316 617.687 585.536C624.067 583.116 631.317 583.976 638.077 585.256C659.117 589.236 679.317 596.916 697.267 607.756C703.977 611.806 710.527 616.466 714.607 622.806C718.687 629.156 719.827 637.536 715.487 644.026C719.907 641.796 725.467 642.216 730.097 644.036C734.737 645.856 738.637 648.926 742.417 651.986C750.427 658.496 758.227 665.216 765.797 672.146C772.637 678.406 779.657 685.496 780.727 694.306C782.017 704.896 773.927 714.956 763.787 720.156C753.647 725.356 741.767 726.706 730.227 727.926C689.517 732.216 648.757 736.086 607.997 739.946C597.617 740.926 587.227 741.916 576.787 742.006C567.207 742.086 557.637 741.416 548.087 740.746C538.107 740.026 528.117 739.326 523.037 734.756Z" fill="#BBBBBB"/>
<path d="M545.987 734.706C548.707 745.216 557.197 753.646 559.287 764.296C575.417 806.596 591.337 848.356 602.267 891.566C613.147 934.556 619.017 979.226 614.607 1023.35C618.997 1023.48 623.377 1024.06 627.647 1025.12C634.757 924.646 596.577 826.446 559.057 732.066C557.767 728.836 555.537 727.456 553.457 726.536C551.377 725.616 548.687 725.646 547.057 727.246C545.147 729.076 545.327 732.146 545.987 734.706Z" fill="#B7B7B7"/>
<path d="M591.387 1073.92C593.067 1077.32 596.687 1079.28 600.247 1080.55C607.527 1083.15 615.347 1083.74 623.057 1083.94C626.247 1084.02 629.657 1083.97 632.277 1082.15C634.497 1080.62 635.747 1078.07 636.827 1075.61C642.697 1062.13 645.707 1047.41 642.767 1030.98C638.007 1028.36 632.907 1026.39 627.647 1025.11C623.377 1024.06 618.997 1023.47 614.607 1023.34C610.107 1023.2 605.607 1023.55 601.197 1024.4C599.467 1024.73 597.627 1025.21 596.457 1026.53C595.467 1027.65 595.137 1029.2 594.847 1030.67C592.627 1042 591.137 1053.46 590.377 1064.98C590.157 1068.01 590.037 1071.19 591.387 1073.92Z" fill="#707070"/>
<path d="M466.057 742.566C423.507 1023.43 411.247 1309.1 431.847 1596.93C431.937 1598.35 432.047 1599.76 432.147 1601.18C390.567 1598.53 355.107 1594.81 339.587 1593.87C268.727 1589.57 236.017 1591.26 221.027 1553.9C208.337 1522.25 215.227 1461.13 234.277 1442.18C235.527 1440.92 236.827 1439.85 238.177 1438.99C250.077 1391.92 268.517 1326.73 263.307 1278.45C209.877 1490.17 202.947 1456.55 184.917 1478.67C185.377 1479.12 185.807 1479.59 186.207 1480.07C198.277 1494.19 194.087 1521.61 187.717 1536.11C181.137 1551.12 174.897 1559.26 158.607 1561.04C142.317 1562.82 114.967 1560.31 99.7271 1554.28C80.3671 1546.61 67.917 1548.79 58.587 1530.16C49.317 1511.64 58.797 1469.46 78.027 1461.66C78.137 1461.62 78.2471 1461.57 78.3571 1461.53C61.8471 1441.07 65.467 1411.51 70.157 1385.63C100.947 1215.21 139.847 1046.36 178.707 877.586C193.497 813.416 207.127 739.796 256.367 696.076C296.897 660.086 352.317 686.766 391.417 693.466C411.187 696.846 427.337 698.616 442.327 702.906C444.687 708.546 447.377 714.026 450.777 719.096C455.047 725.466 460.607 731.196 467.217 734.966C466.827 737.496 466.437 740.036 466.057 742.566Z" fill="white"/>
<path d="M58.587 1530.16C67.917 1548.79 80.3671 1546.61 99.7371 1554.28C114.977 1560.31 142.317 1562.82 158.607 1561.04C174.897 1559.26 181.137 1551.12 187.727 1536.11C194.087 1521.61 198.277 1494.19 186.217 1480.07C162.197 1475.44 138.617 1468.6 114.477 1464.68C102.477 1462.73 90.197 1461.52 78.027 1461.66C58.797 1469.46 49.317 1511.64 58.587 1530.16Z" fill="#BBBBBB"/>
<path d="M221.027 1553.9C236.017 1591.26 268.737 1589.57 339.587 1593.87C340.317 1593.91 341.087 1593.96 341.897 1594.02C342.437 1594.06 343.007 1594.1 343.587 1594.14C344.317 1594.19 345.077 1594.25 345.867 1594.31C346.327 1594.35 346.797 1594.38 347.277 1594.42C349.557 1594.6 352.057 1594.81 354.747 1595.04C355.377 1595.09 356.027 1595.14 356.677 1595.2C362.387 1595.69 368.917 1596.27 376.097 1596.88C378.097 1597.06 380.147 1597.23 382.247 1597.41C396.937 1598.66 413.957 1600.02 432.147 1601.18C427.807 1541.49 424.887 1481.88 423.357 1422.4C374.887 1424.11 325.647 1427.83 271.757 1433.86C259.147 1435.27 245.707 1437.11 234.277 1442.18C215.237 1461.13 208.337 1522.25 221.027 1553.9Z" fill="#BBBBBB"/>
<path d="M468.157 734.756C445.027 688.776 418.827 644.086 389.747 601.046C385.557 594.846 380.857 588.316 373.507 585.536C367.127 583.116 359.877 583.976 353.117 585.256C332.077 589.236 311.877 596.916 293.927 607.756C287.217 611.806 280.667 616.466 276.587 622.806C272.507 629.146 271.367 637.536 275.707 644.026C271.287 641.796 265.727 642.216 261.097 644.036C256.467 645.856 252.557 648.926 248.777 651.986C240.767 658.496 232.967 665.216 225.397 672.146C218.557 678.406 211.537 685.496 210.467 694.306C209.177 704.896 217.267 714.956 227.407 720.156C237.547 725.356 249.427 726.706 260.967 727.926C301.677 732.216 342.437 736.086 383.197 739.946C393.577 740.926 403.967 741.916 414.407 742.006C423.987 742.086 433.557 741.416 443.107 740.746C453.087 740.026 463.067 739.326 468.157 734.756Z" fill="#BBBBBB"/>
<path d="M445.207 734.706C442.487 745.216 433.997 753.646 431.907 764.296C415.777 806.596 399.857 848.356 388.927 891.566C378.047 934.556 372.177 979.226 376.587 1023.35C372.197 1023.48 367.817 1024.06 363.547 1025.12C356.437 924.646 394.617 826.446 432.137 732.066C433.427 728.836 435.657 727.456 437.737 726.536C439.817 725.616 442.507 725.646 444.137 727.246C446.037 729.076 445.867 732.146 445.207 734.706Z" fill="#B7B7B7"/>
<path d="M399.807 1073.92C398.127 1077.32 394.507 1079.28 390.947 1080.55C383.667 1083.15 375.847 1083.74 368.137 1083.94C364.947 1084.02 361.537 1083.97 358.917 1082.15C356.697 1080.62 355.447 1078.07 354.367 1075.61C348.497 1062.13 345.487 1047.41 348.427 1030.98C353.187 1028.36 358.287 1026.39 363.547 1025.11C367.817 1024.06 372.197 1023.47 376.587 1023.34C381.087 1023.2 385.587 1023.55 389.997 1024.4C391.727 1024.73 393.567 1025.21 394.737 1026.53C395.727 1027.65 396.057 1029.2 396.347 1030.67C398.567 1042 400.057 1053.46 400.817 1064.98C401.027 1068.01 401.147 1071.19 399.807 1073.92Z" fill="#707070"/>
<path d="M472.107 861.956C444.697 1048.7 436.457 1238.24 445.217 1428.6C449.037 1484.09 449.887 1539.78 447.737 1595.35C442.457 1596.82 437.147 1597.26 431.847 1596.93C411.247 1309.1 423.507 1023.43 466.057 742.566C473.757 757.906 477.347 775.406 478.117 792.666C479.147 815.866 475.477 838.986 472.107 861.956Z" fill="#8B8787"/>
</svg>
