<svg width="1000" height="3200" viewBox="0 0 1000 3200" fill="none" xmlns="http://www.w3.org/2000/svg">
<path d="M807.41 2009.02H545.44C538.82 1887.49 531.81 1762.16 523.78 1626.82C523.92 1624.88 522.83 1623.01 521.33 1621.77C519.84 1620.53 517.98 1619.81 516.15 1619.18C511.48 1617.58 506.66 1616.39 501.71 1615.47C496.75 1616.39 491.93 1617.58 487.26 1619.18C485.42 1619.81 483.57 1620.53 482.08 1621.77C480.58 1623.01 479.48 1624.88 479.63 1626.82C471.6 1762.16 464.59 1887.49 457.97 2009.02H196C200.94 1776.15 221.01 1543.42 290.23 1322C300.72 1325.25 402.28 1325.9 471.33 1325.96C484.08 1325.98 495.62 1325.97 505.14 1325.96C505.44 1325.97 505.75 1325.97 506.05 1325.96C513.84 1325.98 522.63 1325.98 532.08 1325.96C601.13 1325.9 700.69 1325.25 711.18 1322C780.4 1543.42 802.47 1776.15 807.41 2009.02Z" fill="white"/>
</svg>
