<svg width="988" height="988" viewBox="0 0 988 988" fill="none" xmlns="http://www.w3.org/2000/svg">
<path d="M668.46 659.92C695.32 763.81 722.37 822.56 738.08 919.77C674.67 918.32 608.53 920.45 541.72 917.91C509.86 916.7 477.97 916.7 446.11 917.91C379.32 920.45 313.22 918.33 249.81 919.77C265.52 822.56 292.57 763.81 319.43 659.92C352.8 530.85 333.21 475.62 324.31 458.98C324.31 458.89 324.32 458.79 324.32 458.7C323.36 456.97 322.95 455.14 322.94 453.25C285.68 397.37 242.72 345.29 197 298.38C199.17 287.77 201.42 277.34 203.76 267.09C227.44 163.36 247.74 136.89 305.64 112.28C335.7 99.5 372.15 83.1 401.03 68C424.34 94.29 458.83 110.53 493.95 111.6C529.07 110.52 563.56 94.29 586.86 68C615.74 83.1 652.19 99.5 682.25 112.28C740.15 136.89 760.45 163.36 784.13 267.09C786.47 277.34 788.72 287.77 790.89 298.38C745.17 345.29 702.21 397.37 664.95 453.25C664.94 455.14 664.53 456.97 663.57 458.7C663.57 458.79 663.58 458.89 663.58 458.98C654.68 475.62 635.09 530.85 668.46 659.92Z" fill="black"/>
</svg>
