<svg width="1000" height="3200" viewBox="0 0 1000 3200" fill="none" xmlns="http://www.w3.org/2000/svg">
<path d="M325.574 412.203C323.244 445.943 310.464 478.883 288.974 504.553C301.304 525.673 320.744 542.553 343.804 551.773C350.844 543.673 357.884 535.583 365.114 527.333C363.624 538.323 359.884 549.003 354.314 558.493C391.234 577.543 434.304 584.413 475.174 578.373C485.394 525.363 488.864 471.053 484.564 418.543C432.124 421.173 379.464 419.193 325.574 412.203Z" fill="#050404"/>
<path d="M680.064 412.203C682.394 445.943 695.174 478.883 716.664 504.553C704.334 525.673 684.894 542.553 661.834 551.773C654.794 543.673 647.754 535.583 640.524 527.333C642.014 538.323 645.754 549.003 651.324 558.493C614.404 577.543 571.334 584.413 530.464 578.373C520.244 525.363 516.774 471.053 521.074 418.543C573.514 421.173 626.174 419.193 680.064 412.203Z" fill="black"/>
<path d="M911.474 1769.85C907.074 1791.23 891.634 1754.17 891.214 1745.47C890.804 1736.77 908.014 1699.9 893.094 1680.19C868.284 1647.39 881.384 1693.24 875.084 1702.7C867.884 1713.51 862.204 1703.79 856.194 1675.93C850.194 1648.08 856.714 1612.84 868.204 1582.14C868.204 1582.14 782.974 1300.13 759.944 1192.8C748.074 1137.43 708.384 1070.03 672.974 998.983C672.954 998.943 672.934 998.903 672.914 998.863C672.914 998.863 672.554 999.273 671.944 1000.15C666.054 1008.61 636.554 1060.36 674.104 1205.59C691.274 1272.03 708.534 1320.01 722.844 1371.39C743.084 1444.01 757.464 1523.43 757.464 1671.36C757.464 1676 757.454 1680.57 757.434 1685.07C756.324 1925.99 726.224 1981.51 735.544 2211.83C745.024 2446.46 724.844 2736.16 706.004 2908.84C706.004 2908.84 719.864 2941.17 784.744 2977.75C849.624 3014.32 886.224 3008.1 901.334 3050.9L629.294 3044.04C629.294 3044.04 619.234 3002.65 633.104 2971.65C646.974 2940.65 641.124 2876.14 624.714 2733.9C608.314 2591.65 588.324 2295.68 592.734 2164.62C597.144 2033.55 554.814 1845.76 540.004 1695.84C540.004 1695.84 539.644 1691.74 539.064 1685.07C536.974 1660.97 532.064 1603.27 531.144 1583.4C530.104 1561.1 527.824 1489.59 499.624 1476.71C471.414 1489.58 469.134 1561.1 468.094 1583.4C467.174 1603.27 462.254 1660.97 460.164 1685.07C459.584 1691.74 459.224 1695.84 459.224 1695.84C444.424 1845.76 402.094 2033.55 406.504 2164.62C410.914 2295.68 390.924 2591.65 374.514 2733.9C358.114 2876.14 352.264 2940.65 366.134 2971.65C380.004 3002.65 369.944 3044.04 369.944 3044.04L97.9036 3050.9C113.014 3008.1 149.614 3014.32 214.494 2977.75C279.374 2941.17 293.234 2908.84 293.234 2908.84C274.384 2736.16 254.214 2446.46 263.694 2211.83C273.014 1981.51 242.914 1925.99 241.804 1685.07C241.784 1680.57 241.774 1676 241.774 1671.36C241.774 1523.43 256.144 1444.01 276.394 1371.39C290.704 1320.01 307.964 1272.03 325.134 1205.59C366.584 1045.26 326.324 998.863 326.324 998.863C290.894 1069.95 251.174 1137.4 239.284 1192.8C216.264 1300.13 131.034 1582.14 131.034 1582.14C142.524 1612.84 149.044 1648.08 143.034 1675.93C137.034 1703.79 131.344 1713.51 124.154 1702.7C117.854 1693.24 130.954 1647.39 106.144 1680.19C91.2236 1699.9 108.434 1736.77 108.024 1745.47C107.604 1754.17 92.1636 1791.23 87.7636 1769.85C83.3536 1748.47 57.3336 1661.14 64.1236 1631.41C70.9136 1601.69 93.7136 1575.34 93.7136 1575.34C104.604 1452.25 134.014 1292.78 152.524 1166.18C171.044 1039.58 185.794 916.493 209.464 812.763C227.174 735.203 242.984 700.833 274.044 678.163C284.524 670.493 296.734 664.163 311.344 657.953C321.144 653.783 331.614 649.243 342.284 644.473C394.674 621.093 451.774 592.543 456.374 578.913C458.774 571.783 459.774 561.903 460.134 552.993C460.614 541.373 459.994 531.413 459.994 531.413L499.614 535.603L539.244 531.413C539.244 531.413 538.554 542.603 539.204 555.103C539.624 563.433 540.654 572.343 542.864 578.913C547.504 592.663 605.584 621.603 658.354 645.103C668.534 649.633 678.524 653.973 687.894 657.953C703.244 664.483 715.954 671.133 726.784 679.333C756.794 702.033 772.374 736.533 789.774 812.763C813.444 916.493 828.194 1039.58 846.704 1166.18C865.224 1292.78 894.634 1452.25 905.524 1575.34C905.524 1575.34 928.324 1601.69 935.114 1631.41C941.904 1661.14 915.884 1748.47 911.474 1769.85Z" fill="#FEB7A4"/>
<path d="M539.204 555.103C531.674 563.363 523.314 570.843 514.294 577.373C509.754 580.663 504.604 583.843 499.054 583.453C494.864 583.153 491.094 580.863 487.614 578.463C477.334 571.363 468.054 562.753 460.134 552.993C460.614 541.373 459.994 531.413 459.994 531.413L499.614 535.603L539.244 531.413C539.244 531.413 538.554 542.603 539.204 555.103Z" fill="#F7997C"/>
<path d="M700.714 396.993C699.194 413.633 689.314 428.853 676.004 438.953C661.014 450.323 641.574 455.663 622.884 453.543C617.694 452.953 612.154 451.583 608.824 447.543C605.384 443.373 605.194 437.463 605.534 432.063C607.184 405.873 619.844 382.213 634.784 362.333C636.084 360.603 637.554 359.053 639.174 357.673C648.214 349.963 661.664 347.733 673.194 351.373C675.544 352.103 677.804 353.083 679.944 354.313C694.434 362.643 702.224 380.353 700.714 396.993Z" fill="#F7997C"/>
<path d="M393.483 447.543C390.163 451.583 384.623 452.953 379.423 453.543C360.733 455.663 341.303 450.323 326.313 438.953C313.003 428.853 303.113 413.633 301.603 396.993C300.093 380.353 307.883 362.643 322.373 354.313C323.883 353.443 325.453 352.703 327.073 352.083C338.063 347.853 351.253 349.223 360.743 355.833C363.313 357.613 365.613 359.783 367.523 362.333C382.463 382.213 395.133 405.873 396.773 432.063C397.113 437.463 396.923 443.373 393.483 447.543Z" fill="#F7997C"/>
<path d="M361.363 351.353C355.233 420.083 389.343 490.943 446.893 529.023C461.473 538.663 477.933 546.463 495.403 547.103C512.293 547.723 528.803 541.593 543.543 533.313C594.013 504.963 627.133 451.253 639.243 394.643C644.953 367.923 646.333 339.533 637.493 313.683C627.223 283.673 604.143 259.693 578.883 240.513C560.403 226.483 539.913 214.253 517.183 209.563C478.803 201.633 437.803 216.913 409.623 244.153C381.433 271.393 365.113 309.243 361.363 351.353Z" fill="#FEB7A4"/>
<path d="M672.794 350.972C672.734 350.952 672.684 350.932 672.624 350.912V351.022C665.684 349.962 658.564 350.092 651.674 351.422C648.624 352.012 645.354 353.002 643.584 355.552C643.394 352.012 643.194 348.482 643.004 344.952C639.884 343.692 636.574 342.752 633.374 341.802C564.594 321.432 501.394 299.972 473.614 214.032C469.984 245.742 452.274 274.512 429.784 297.172C408.574 318.542 384.984 337.842 360.344 355.432C350.854 348.822 337.664 347.452 326.674 351.682C319.474 308.352 331.434 269.922 356.234 233.782C382.214 195.922 427.264 170.032 465.934 172.682C474.574 162.872 489.474 158.242 501.834 154.022C536.504 142.222 575.954 158.212 606.564 178.302C637.184 198.402 655.024 226.602 665.684 261.632C675.124 292.672 677.314 318.792 672.794 350.972Z" fill="#1A1414"/>
<path d="M612.834 381.953C611.864 388.893 609.874 395.663 606.964 402.033C602.874 410.953 596.974 419.063 589.484 425.633C572.464 431.243 553.734 431.543 536.824 426.593C531.084 421.403 527.664 414.103 526.304 406.433C525.864 404.033 525.634 401.593 525.594 399.173C525.444 389.013 526.484 378.093 531.354 370.923C531.524 370.673 531.694 370.423 531.884 370.183C541.384 356.803 558.624 349.323 574.884 351.593C581.424 352.513 587.684 354.973 593.264 358.593C601.834 364.153 608.834 372.423 612.834 381.953Z" fill="#E0E0E0"/>
<path d="M590.333 436.983C577.943 432.463 563.943 432.513 551.593 437.123C547.313 438.723 543.013 441.043 540.723 444.983C537.723 450.133 538.993 457.023 542.673 461.723C546.343 466.423 551.973 469.223 557.703 470.883C565.143 473.023 573.063 473.473 580.693 472.183C586.503 471.203 592.283 469.133 596.673 465.213C601.063 461.293 603.863 455.283 602.913 449.473C601.963 443.673 596.493 439.233 590.333 436.983Z" fill="#FC8F8B"/>
<path d="M608.544 348.922C588.594 334.112 560.144 331.732 537.104 342.422C544.984 332.312 558.033 326.452 570.823 327.282C586.563 328.292 600.344 338.662 608.544 348.922Z" fill="#141212"/>
<path d="M476.643 399.173C476.623 400.493 476.543 401.813 476.413 403.133C475.503 411.983 471.963 420.653 465.413 426.593C448.503 431.543 429.773 431.243 412.753 425.633C406.433 420.093 401.243 413.443 397.323 406.143C393.283 398.623 390.593 390.393 389.403 381.953C393.403 372.423 400.403 364.153 408.973 358.593C414.553 354.973 420.813 352.513 427.353 351.593C443.613 349.323 460.853 356.803 470.353 370.183C470.543 370.423 470.713 370.673 470.883 370.923C475.753 378.093 476.793 389.013 476.643 399.173Z" fill="#E0E0E0"/>
<path d="M476.413 403.132C475.503 411.982 471.963 420.652 465.413 426.592C448.503 431.542 429.773 431.242 412.753 425.632C406.433 420.092 401.243 413.442 397.323 406.142C420.103 395.342 447.023 393.362 471.053 401.042C472.843 401.622 474.683 402.292 476.413 403.132Z" fill="white"/>
<path d="M606.964 402.032C602.874 410.952 596.974 419.062 589.484 425.632C572.464 431.242 553.734 431.542 536.824 426.592C531.084 421.402 527.664 414.102 526.304 406.432C551.704 396.162 580.554 394.462 606.904 402.012C606.924 402.022 606.944 402.022 606.964 402.032Z" fill="white"/>
<path d="M597.384 382.653C595.884 395.023 590.154 407.333 579.954 414.493C569.754 421.663 554.784 422.503 545.124 414.633C538.044 408.873 534.734 399.663 533.134 390.683C531.924 383.933 531.504 377.033 531.884 370.183C541.384 356.803 558.624 349.323 574.884 351.593C581.424 352.513 587.684 354.973 593.264 358.593C597.394 365.533 598.374 374.463 597.384 382.653Z" fill="black"/>
<path d="M404.853 382.653C406.353 395.023 412.083 407.333 422.283 414.493C432.483 421.663 447.453 422.503 457.113 414.633C464.193 408.873 467.503 399.663 469.103 390.683C470.313 383.933 470.733 377.033 470.353 370.183C460.853 356.803 443.613 349.323 427.353 351.593C420.813 352.513 414.553 354.973 408.973 358.593C404.843 365.533 403.863 374.463 404.853 382.653Z" fill="black"/>
<path d="M411.904 436.983C424.294 432.463 438.294 432.513 450.644 437.123C454.924 438.723 459.224 441.043 461.514 444.983C464.514 450.133 463.244 457.023 459.564 461.723C455.894 466.423 450.264 469.223 444.534 470.883C437.094 473.023 429.174 473.473 421.544 472.183C415.734 471.203 409.954 469.133 405.564 465.213C401.174 461.293 398.374 455.283 399.324 449.473C400.274 443.673 405.744 439.233 411.904 436.983Z" fill="#FC8F8B"/>
<path d="M390.693 348.922C410.643 334.112 439.093 331.732 462.133 342.422C454.253 332.312 441.203 326.452 428.413 327.282C412.673 328.292 398.893 338.662 390.693 348.922Z" fill="#141212"/>
<path d="M515.414 433.272L515.544 434.767L515.547 434.767L515.414 433.272ZM522.564 435.522L523.71 434.555L523.708 434.552L522.564 435.522ZM524.104 440.982L522.605 440.928L522.605 440.928L524.104 440.982ZM515.304 455.202L516.108 456.469L516.109 456.468L515.304 455.202ZM498.664 457.932C497.836 457.932 497.164 458.604 497.164 459.432C497.164 460.261 497.836 460.932 498.664 460.932V457.932ZM501.049 449.39C501.632 441.98 508.135 435.413 515.544 434.767L515.284 431.778C506.413 432.552 498.756 440.285 498.059 449.155L501.049 449.39ZM515.547 434.767C517.956 434.553 520.212 435.068 521.42 436.493L523.708 434.552C521.557 432.017 518.052 431.532 515.281 431.778L515.547 434.767ZM521.418 436.49C522.323 437.562 522.669 439.17 522.605 440.928L525.603 441.037C525.679 438.935 525.305 436.443 523.71 434.555L521.418 436.49ZM522.605 440.928C522.417 446.129 519.07 451.029 514.499 453.937L516.109 456.468C521.318 453.155 525.371 447.436 525.603 441.037L522.605 440.928ZM514.5 453.936C509.921 456.842 504.293 457.932 498.664 457.932V460.932C504.635 460.932 510.887 459.783 516.108 456.469L514.5 453.936Z" fill="#1A1A1A"/>
<path d="M469.386 490.684C468.663 490.279 467.749 490.537 467.345 491.259C466.94 491.982 467.198 492.896 467.92 493.301L469.386 490.684ZM467.92 493.301C478.404 499.172 490.469 502.178 502.477 501.912L502.41 498.913C490.938 499.167 479.403 496.293 469.386 490.684L467.92 493.301ZM502.477 501.912C514.485 501.646 526.407 498.098 536.615 491.757L535.032 489.208C525.279 495.267 513.881 498.659 502.41 498.913L502.477 501.912Z" fill="#1A1A1A"/>
<path d="M411.554 409.542C417.353 409.542 422.054 404.841 422.054 399.042C422.054 393.243 417.353 388.542 411.554 388.542C405.755 388.542 401.054 393.243 401.054 399.042C401.054 404.841 405.755 409.542 411.554 409.542Z" fill="white"/>
<path d="M420.014 392.403C422.985 392.403 425.394 389.994 425.394 387.023C425.394 384.051 422.985 381.643 420.014 381.643C417.043 381.643 414.634 384.051 414.634 387.023C414.634 389.994 417.043 392.403 420.014 392.403Z" fill="white"/>
<path d="M590.813 409.092C596.612 409.092 601.313 404.391 601.313 398.592C601.313 392.793 596.612 388.092 590.813 388.092C585.014 388.092 580.313 392.793 580.313 398.592C580.313 404.391 585.014 409.092 590.813 409.092Z" fill="white"/>
<path d="M702.573 347.922C702.013 348.132 701.463 348.342 700.903 348.552Z" fill="#141212"/>
<path d="M726.784 679.333C725.894 686.373 724.984 693.413 724.044 700.453C710.784 800.363 693.684 899.173 673.324 997.303L672.974 998.983L672.734 1000.13C672.724 1000.13 672.724 1000.14 672.714 1000.14C672.454 1000.15 672.204 1000.15 671.944 1000.15C614.724 1001.35 557.574 1001.48 500.494 1000.88C443.154 1001.48 385.754 1001.35 328.264 1000.14C328.254 1000.14 328.254 1000.13 328.244 1000.13L327.654 997.303C307.294 899.173 290.194 800.363 276.934 700.453C275.944 693.033 274.984 685.603 274.044 678.163C284.524 670.493 296.734 664.163 311.344 657.953C321.144 653.783 331.614 649.243 342.284 644.473C353.894 666.163 370.384 685.083 389.934 700.603C417.704 722.663 451.634 737.873 486.494 744.443C486.544 744.453 486.594 744.463 486.654 744.473C495.794 746.193 505.204 746.193 514.344 744.473C514.394 744.463 514.434 744.453 514.484 744.443C573.654 733.283 630.114 697.263 658.354 645.103C668.534 649.633 678.524 653.973 687.894 657.953C703.244 664.483 715.954 671.133 726.784 679.333Z" fill="#1A1414"/>
<path d="M757.463 1671.36C757.463 1676 757.453 1680.57 757.433 1685.07H539.063C536.973 1660.97 532.063 1603.27 531.143 1583.4C530.103 1561.1 527.823 1489.59 499.623 1476.71C471.413 1489.58 469.133 1561.1 468.093 1583.4C467.173 1603.27 462.253 1660.97 460.163 1685.07H241.803C241.783 1680.57 241.773 1676 241.773 1671.36C241.773 1523.43 256.143 1444.01 276.393 1371.39H722.843C743.083 1444.01 757.463 1523.43 757.463 1671.36Z" fill="#1A1414"/>
</svg>
