<svg width="988" height="988" viewBox="0 0 988 988" fill="none" xmlns="http://www.w3.org/2000/svg">
<path d="M718.607 947.264C644.797 960.11 567.348 966.456 491.109 964.595H491.073C414.851 966.764 343.974 960.11 270.157 947.264C266.614 827.231 323.982 681.287 333.954 563.434C338.528 509.444 337.592 477.72 337.592 423.54C337.592 377.412 337.438 296.391 335.815 231.841C333.877 154.588 360.221 68.8388 373.517 22H612.878C626.174 68.8388 654.295 154.588 652.352 231.841C650.734 296.391 649.389 377.412 649.389 423.54C649.389 477.72 646.089 509.444 650.657 563.434C660.635 681.287 722.151 827.231 718.607 947.264Z" fill="black"/>
</svg>
