<svg width="2252" height="2570" viewBox="0 0 2252 2570" fill="none" xmlns="http://www.w3.org/2000/svg">
<path d="M2250 2570C2083.13 2545.26 1916.65 2516.58 1749.89 2490.19C1743.15 2489.12 1736.42 2488.06 1729.68 2487V2570H579.68V2477.82C386.28 2507.38 193.4 2541.34 0 2570C23.28 2516.02 46.56 2462.04 69.84 2408.04C140.6 2179.98 218.21 1942.99 364.02 1735.88C387.73 1702.19 413.72 1668.88 448.97 1643.94C496.12 1610.57 555.96 1594.7 613.46 1577.59C615.91 1576.87 618.34 1576.15 620.8 1575.4C699.95 1551.6 777.59 1524.13 853.33 1493.14C862.49 1489.4 871.68 1485.55 880.79 1481.49C924.57 1462.1 966.45 1438.44 991.8 1402.5C1025.74 1354.4 1023.49 1294.1 1019.36 1237.81C1060.76 1177.4 1071.14 1173.59 1078.48 1176.04C1085.76 1178.49 1090.42 1184.68 1094.42 1190.53C1105.3 1206.36 1115.5 1222.55 1124.99 1239.05C1134.48 1222.55 1144.65 1206.38 1155.53 1190.53C1159.58 1184.68 1164.19 1178.49 1171.52 1176.04C1178.86 1173.59 1189.24 1177.4 1230.64 1237.81C1226.49 1294.1 1224.26 1354.4 1258.2 1402.5C1288.66 1445.67 1342.92 1471.11 1395.68 1492.74C1396.01 1492.88 1396.31 1493 1396.64 1493.14C1474.74 1525.09 1554.85 1553.3 1636.52 1577.59C1681.69 1591.03 1728.27 1603.68 1769.02 1624.69C1780.18 1630.4 1790.88 1636.77 1801 1643.94C1836.25 1668.88 1862.24 1702.19 1885.95 1735.88C2031.79 1942.99 2109.38 2179.98 2180.13 2408.04C2203.44 2462.04 2226.69 2516.02 2250 2570Z" fill="black"/>
<path d="M1395.68 1492.74C1371.66 1555.84 1333.68 1616.66 1274.49 1655.16C1174.76 1719.97 1022.45 1701.6 944.12 1615.35C909.75 1577.52 889.97 1530.43 880.78 1481.49C924.56 1462.1 966.44 1438.43 991.8 1402.5C998.28 1393.33 1003.44 1383.69 1007.51 1373.73C1024.79 1331.54 1022.69 1283.37 1019.35 1237.82C1060.75 1177.4 1071.13 1173.6 1078.46 1176.05C1085.75 1178.5 1090.4 1184.68 1094.4 1190.54C1105.28 1206.36 1115.48 1222.56 1124.97 1239.06C1134.46 1222.56 1144.63 1206.39 1155.51 1190.54C1159.56 1184.68 1164.16 1178.5 1171.5 1176.05C1178.84 1173.6 1189.21 1177.4 1230.61 1237.82C1227.22 1283.7 1225.12 1332.24 1242.83 1374.66C1246.85 1384.27 1251.89 1393.61 1258.17 1402.5C1288.66 1445.67 1342.92 1471.11 1395.68 1492.74Z" fill="#FEB7A4"/>
<path d="M1242.86 1374.66C1214.32 1399.86 1184.25 1423.41 1151.15 1443.2C1145.56 1446.54 1139.59 1449.85 1132.93 1450.34C1127.03 1450.78 1121.21 1448.92 1115.7 1446.89C1073.39 1431.14 1039.25 1404.21 1007.52 1373.73C1024.8 1331.54 1022.7 1283.37 1019.36 1237.82C1060.76 1177.4 1071.14 1173.6 1078.47 1176.05C1085.76 1178.5 1090.41 1184.68 1094.41 1190.54C1105.29 1206.36 1115.49 1222.56 1124.98 1239.06C1134.47 1222.56 1144.64 1206.39 1155.52 1190.54C1159.57 1184.68 1164.17 1178.5 1171.51 1176.05C1178.85 1173.6 1189.22 1177.4 1230.62 1237.82C1227.25 1283.69 1225.15 1332.23 1242.86 1374.66Z" fill="#F7997C"/>
<path d="M698.13 736.92C664.92 718.81 627.79 705.03 589.2 704.6C550.61 704.17 510.47 718.86 488.56 748.15C457.27 789.99 470.77 848.53 499.72 891.78C535.31 944.97 592.48 985.56 657.34 1003.7C691.96 1013.38 735.22 1014.58 758.35 988.92C773.9 971.68 775.5 947.27 773.98 924.89C770.42 872.59 790.07 787.06 698.13 736.92Z" fill="#F7997C"/>
<path d="M1559.12 736.92C1592.33 718.81 1629.46 705.03 1668.05 704.6C1706.63 704.17 1746.78 718.86 1768.69 748.15C1799.98 789.99 1786.48 848.53 1757.53 891.78C1721.94 944.97 1664.77 985.56 1599.91 1003.7C1565.29 1013.38 1522.03 1014.58 1498.9 988.92C1483.35 971.68 1481.75 947.27 1483.27 924.89C1486.82 872.59 1467.17 787.06 1559.12 736.92Z" fill="#F7997C"/>
<path d="M641.26 593.9C670.46 727.61 699.67 861.33 728.87 995.04C741.36 1052.23 754.69 1111.27 791.09 1158.98C837.39 1219.66 913.94 1253.21 987.05 1284.18C1026.24 1300.78 1066.77 1317.69 1109.88 1318.95C1161.44 1320.46 1210.26 1299.5 1256.81 1279C1331.04 1246.32 1409.29 1210.4 1452.51 1145.86C1478.75 1106.67 1489.39 1060.55 1499.59 1015.46C1512.6 957.98 1525.6 900.5 1538.61 843.02C1558.5 755.14 1578.46 664.83 1562.67 576.25C1537.61 435.64 1418.93 315.91 1273.27 268.36C1127.61 220.81 960.51 242.08 826.6 313.18C731.35 363.76 609.98 450.7 641.26 593.9Z" fill="#FEB7A4"/>
<path d="M1381.26 1045.78C1372.98 1095.86 1346.01 1142.37 1307.54 1178.45C1269.02 1214.6 1219.02 1240.34 1164.77 1248.83C1103.05 1258.49 1038.5 1245.42 984.85 1215.83H984.82C944.23 1193.43 909.92 1161.62 887.72 1123.04C878.71 1107.36 871.42 1090.02 872.87 1072.31C873.1 1069.44 873.63 1066.57 874.41 1063.75C878.43 1049.14 889.52 1035.98 905.16 1032.32C1048.09 969.59 1217.46 962.47 1366.2 1011.29C1368.05 1011.92 1370.1 1012.92 1372.07 1014.28C1375.74 1016.78 1379.16 1020.44 1380.75 1024.8C1383.21 1031.5 1382.42 1038.8 1381.26 1045.78Z" fill="#383434"/>
<path d="M1307.54 1178.45C1269.02 1214.6 1219.02 1240.34 1164.77 1248.83C1103.05 1258.49 1038.5 1245.42 984.85 1215.83C1018.3 1182.11 1062.56 1157.51 1110.64 1146.22C1167 1133.01 1228.24 1138.22 1281.02 1160.74C1291.07 1165 1301.19 1170.21 1307.54 1178.45Z" fill="#FF5C5C"/>
<path d="M1372.07 1014.27C1365.21 1032.47 1356.76 1051.19 1339.48 1061.64C1318.91 1074.1 1292.08 1071.16 1267.61 1068.66C1179.19 1059.61 1089.36 1062.2 1001.75 1076.34C972.52 1081.08 942.61 1087.07 913.53 1081.64C899.28 1078.98 885.24 1072.7 874.41 1063.74C878.43 1049.13 889.52 1035.97 905.16 1032.31C1048.09 969.58 1217.46 962.46 1366.2 1011.28C1368.05 1011.92 1370.1 1012.92 1372.07 1014.27Z" fill="white"/>
<path d="M1445.46 274.92C1477.78 264.46 1511.96 285.44 1535.07 308.75C1616.66 391.06 1638.64 511.01 1628.69 622.15C1626.29 648.94 1621.99 676.38 1607.48 699.7C1592.97 723.01 1566.13 741.52 1537 740.39C1464.02 661.52 1418.15 546.06 1419.8 430.65C1332.48 504.17 1232.53 545.61 1129.07 554.09C1116.75 507.77 1116.44 457.23 1124.77 407.92C1025.29 535.46 897.92 640.48 752.57 716.41C702.76 742.43 649.28 765.48 592.17 769.11C524.63 773.4 455.58 748.5 409.11 703.1C362.64 657.71 339.65 592.7 354.53 529.06C385.23 536.26 416.88 540.03 447.69 546.34C401.43 492.65 383.22 421.09 389.72 352.78C396.22 284.47 425.95 219.27 466.69 161.91C515.12 93.73 579.7 35.15 664.67 0C684.3 44.7 714.48 85.44 758.28 123.82C767.37 77.34 802.99 36 860.93 16.88C885.16 44.29 919.94 63.61 962.75 71.1C1025.74 87.24 1092.37 83.12 1157.74 83.26C1223.11 83.4 1291.54 88.8 1346.87 120.9C1400.85 152.22 1436.89 208.39 1445.46 274.92Z" fill="black"/>
<path d="M1220.82 755.08C1252.62 730.1 1294.05 715.76 1335.82 715.27C1377.59 714.78 1419.4 728.14 1451.88 752.37C1446.5 754.49 1441.13 756.62 1435.75 758.74C1441.88 765.8 1445.96 774.37 1447.44 783.31C1379.61 744.96 1293.33 735.62 1220.82 755.08Z" fill="black"/>
<path d="M1232.66 656.85C1301.25 619.29 1383.58 622.19 1440.17 664.14C1400.53 622.6 1338.1 607.21 1279.31 624.48C1260 630.16 1239.67 640.47 1232.66 656.85Z" fill="black"/>
<path d="M1021.08 755.08C989.28 730.1 947.85 715.76 906.08 715.27C864.31 714.78 822.5 728.14 790.02 752.37C795.4 754.49 800.77 756.62 806.15 758.74C800.02 765.8 795.94 774.37 794.46 783.31C862.29 744.96 948.57 735.62 1021.08 755.08Z" fill="black"/>
<path d="M1009.24 656.85C940.65 619.29 858.32 622.19 801.73 664.14C841.37 622.6 903.8 607.21 962.59 624.48C981.9 630.16 1002.23 640.47 1009.24 656.85Z" fill="black"/>
<path d="M1621.11 975.97C1614.82 978.42 1608.54 980.88 1602.25 983.33C1602.82 985.49 1603.39 987.66 1621.11 975.97Z" fill="#F7997C"/>
<path d="M1082.08 919.56C1077.54 919.56 1073 919.22 1068.54 918.52C1046.04 915 1025.13 902.39 1012.6 884.8C1001.66 869.44 998.3 851.51 1003.62 836.83C1009.41 820.84 1025.88 808.05 1045.58 804.24C1062.58 800.95 1081.85 803.96 1099.8 812.7C1113.73 819.48 1127.14 829.59 1142 844.53C1143.41 845.95 1143.31 848.15 1141.77 849.45C1140.24 850.75 1137.85 850.65 1136.43 849.24C1122.17 834.91 1109.41 825.26 1096.26 818.86C1079.85 810.87 1062.39 808.11 1047.11 811.06C1029.98 814.37 1015.72 825.35 1010.76 839.04C1006.17 851.71 1009.21 867.39 1018.9 880.98C1030.29 896.98 1049.32 908.45 1069.78 911.65C1090.25 914.86 1112.31 909.82 1128.8 898.19C1130.46 897.02 1132.83 897.32 1134.09 898.84C1135.36 900.37 1135.04 902.56 1133.39 903.72C1118.88 913.97 1100.42 919.56 1082.08 919.56Z" fill="#171514"/>
<path d="M1446.27 834.48C1419.32 820.36 1390.22 808.06 1359.27 806.54C1328.32 805.02 1295.09 816.25 1278.64 840.47C1262.19 864.69 1269 901.96 1296.7 914.79C1319.01 925.12 1341.55 935.53 1365.77 941.12C1389.99 946.71 1416.37 947.15 1439.22 937.87C1462.07 928.59 1480.51 908.33 1481.88 885.34C1483.25 862.35 1462.46 842.96 1446.27 834.48Z" fill="#FC8F8B"/>
<path d="M783.19 834.48C810.14 820.36 839.24 808.06 870.19 806.54C901.14 805.03 934.37 816.25 950.82 840.47C967.27 864.69 960.46 901.96 932.76 914.79C910.45 925.12 887.91 935.53 863.69 941.12C839.47 946.71 813.09 947.15 790.24 937.87C767.39 928.59 748.95 908.33 747.58 885.34C746.21 862.35 767 842.96 783.19 834.48Z" fill="#FC8F8B"/>
<path d="M663.37 2569.96H160.33C107.78 2563.28 54.93 2561.86 0.27002 2569.96H0.0200195C23.29 2515.99 46.57 2462.03 69.84 2408.04C70.26 2406.68 70.68 2405.32 71.11 2403.96C141.53 2177.16 219.08 1941.76 364.02 1735.88C387.73 1702.19 413.72 1668.88 448.97 1643.94C496.12 1610.57 555.96 1594.7 613.46 1577.59C615.91 1576.87 618.34 1576.15 620.8 1575.4C632.26 1851.6 643.74 2127.76 655.18 2403.96C655.36 2408.29 655.54 2412.63 655.72 2416.96C656.13 2426.74 660.1 2505 663.37 2569.96Z" fill="#616161"/>
<path d="M0.269989 2569.96C0.179989 2569.97 0.09 2569.99 0 2570C0.01 2569.99 0.00998901 2569.97 0.019989 2569.96H0.269989Z" fill="#616161"/>
<path d="M1804.9 1101.37C1804.47 1096.73 1806.22 1095.09 1807.94 1093.48C1807.61 1095.72 1807.28 1097.94 1807 1100.18C1806.29 1100.55 1805.61 1100.95 1804.9 1101.37Z" stroke="black" stroke-miterlimit="10"/>
<path d="M160.33 2569.96H0.27002C54.93 2561.86 107.78 2563.28 160.33 2569.96Z" fill="#616161"/>
<path d="M1588.27 2569.96H2091.31C2143.86 2563.28 2196.71 2561.86 2251.37 2569.96H2251.62C2228.35 2515.99 2205.07 2462.03 2181.8 2408.04C2181.38 2406.68 2180.96 2405.32 2180.53 2403.96C2110.11 2177.16 2032.56 1941.76 1887.62 1735.88C1863.91 1702.19 1837.92 1668.88 1802.67 1643.94C1755.52 1610.57 1695.68 1594.7 1638.18 1577.59C1635.73 1576.87 1633.3 1576.15 1630.84 1575.4C1619.38 1851.6 1607.9 2127.76 1596.46 2403.96C1596.28 2408.29 1596.1 2412.63 1595.92 2416.96C1595.51 2426.74 1591.54 2505 1588.27 2569.96Z" fill="#616161"/>
</svg>
