<svg width="584" height="779" viewBox="0 0 584 779" fill="none" xmlns="http://www.w3.org/2000/svg">
<rect width="584" height="779" rx="24" fill="#EAEFF3"/>
<path d="M139.406 555.531V545.125H149.094C151.375 545.125 152.812 543.75 152.812 541.656C152.812 539.562 151.375 538.188 149.094 538.188H139.406V528.219C139.406 526 137.969 524.531 135.875 524.531C133.75 524.531 132.344 526 132.344 528.219V538.188H122.781C120.531 538.188 119.094 539.594 119.094 541.656C119.094 543.75 120.531 545.125 122.781 545.125H132.344V555.531C132.344 557.781 133.781 559.219 135.875 559.219C137.969 559.219 139.406 557.781 139.406 555.531Z" fill="black"/>
<path d="M172.719 559.375C174.969 559.375 176.219 558.219 177.094 555.281L179.469 548.031H194.438L196.844 555.281C197.688 558.188 199 559.375 201.281 559.375C203.688 559.375 205.281 557.938 205.281 555.688C205.281 554.812 205.062 553.781 204.625 552.438L193.875 521.625C192.531 517.625 190.656 516 187.125 516C183.562 516 181.656 517.656 180.312 521.625L169.562 552.438C169.031 554.031 168.812 555 168.812 555.844C168.812 557.969 170.406 559.375 172.719 559.375ZM181.344 541.75L186.781 524.5H187.188L192.594 541.75H181.344Z" fill="black"/>
<path d="M231.688 553.719H232.094V555.281C232.25 557.844 233.719 559.312 236.125 559.312C238.75 559.312 240.188 557.688 240.188 554.781V518.406C240.188 515.5 238.688 513.844 236.062 513.844C233.406 513.844 231.938 515.5 231.938 518.406V530.781H231.531C230.25 527.375 226.688 525.312 222.062 525.312C214.406 525.312 209.594 530.875 209.594 539.844V544.906C209.594 553.844 214.375 559.438 221.969 559.438C226.719 559.438 230.625 557.125 231.688 553.719ZM218.062 544.062V540.719C218.062 535.219 220.562 531.906 224.812 531.906C229.031 531.906 231.938 535.188 231.938 540V544.406C231.938 549.625 229.219 552.875 224.938 552.875C220.594 552.875 218.062 549.594 218.062 544.062Z" fill="black"/>
<path d="M269.375 553.719H269.781V555.281C269.938 557.844 271.406 559.312 273.812 559.312C276.438 559.312 277.875 557.688 277.875 554.781V518.406C277.875 515.5 276.375 513.844 273.75 513.844C271.094 513.844 269.625 515.5 269.625 518.406V530.781H269.219C267.938 527.375 264.375 525.312 259.75 525.312C252.094 525.312 247.281 530.875 247.281 539.844V544.906C247.281 553.844 252.062 559.438 259.656 559.438C264.406 559.438 268.312 557.125 269.375 553.719ZM255.75 544.062V540.719C255.75 535.219 258.25 531.906 262.5 531.906C266.719 531.906 269.625 535.188 269.625 540V544.406C269.625 549.625 266.906 552.875 262.625 552.875C258.281 552.875 255.75 549.594 255.75 544.062Z" fill="black"/>
<path d="M301.312 550.125C301.312 556.906 304.156 559.656 310.688 559.656C312.938 559.656 314.625 559.281 315.781 558.531C316.938 557.844 317.469 556.812 317.469 555.594C317.469 554.062 316.469 553.094 315.031 553.094C314.281 553.094 313.719 553.219 312.844 553.219C310.375 553.219 309.562 552.219 309.562 549.219V532.531H312.781C315.031 532.531 316.312 531.312 316.312 529.312C316.312 527.312 315.031 526.094 312.781 526.094H309.5V521.781C309.5 518.938 308.031 517.344 305.469 517.344C302.938 517.344 301.469 518.938 301.469 521.781V526.094H299.625C297.406 526.094 296.125 527.312 296.125 529.312C296.125 531.312 297.406 532.531 299.625 532.531H301.312V550.125Z" fill="black"/>
<path d="M331.281 554.781V540.094C331.281 535.062 333.625 532.531 338.25 532.438C339.594 532.406 340.594 532.156 341.25 531.656C342.062 531.062 342.438 530.188 342.438 528.969C342.438 527.781 342.031 526.844 341.25 526.219C340.531 525.625 339.562 525.312 338.344 525.312C335.219 525.312 332.781 527.062 331.438 530.312H331.094V529.531C330.938 526.969 329.562 525.531 327.125 525.531C324.531 525.531 323.062 527.188 323.062 530.094V554.781C323.062 557.656 324.438 559.312 327.094 559.312C329.781 559.312 331.281 557.656 331.281 554.781Z" fill="black"/>
<path d="M346.406 567.188C346.406 568.062 346.719 568.812 347.312 569.406C348.281 570.344 349.969 570.844 352.125 570.844C358.781 570.844 362.625 567.781 365.219 560.344L375.188 531.75C375.531 530.781 375.656 530.125 375.656 529.5C375.656 527.281 374 525.656 371.75 525.656C369.594 525.656 368.219 526.938 367.531 529.594L361.031 552.188H360.688L354.25 529.594C353.594 526.938 352.188 525.656 349.969 525.656C347.625 525.656 345.906 527.312 345.906 529.531C345.906 530.125 346 530.844 346.312 531.75L356.062 559.406C356.062 559.625 355.75 561 355.656 561.188C354.969 563.312 353.406 564.688 351.531 564.688C350.594 564.688 350.031 564.531 349.375 564.531C347.594 564.531 346.406 565.656 346.406 567.188Z" fill="black"/>
<path d="M407.594 525.125C398.531 525.125 392.281 530.844 392.281 540.406V544.312C392.281 554.125 398.531 559.719 407.594 559.719C416.625 559.719 422.875 554.125 422.875 544.281V540.375C422.875 530.844 416.625 525.125 407.594 525.125ZM407.594 531.531C411.875 531.531 414.406 534.969 414.406 540.562V544.25C414.406 549.906 411.875 553.312 407.594 553.312C403.375 553.312 400.75 549.906 400.75 544.25V540.562C400.75 534.969 403.375 531.531 407.594 531.531Z" fill="black"/>
<path d="M458.969 554.812V536.781C458.969 529.5 454.969 525.312 447.906 525.312C443.031 525.312 439.312 527.75 438.031 531.688H437.625V529.656C437.531 527 436.094 525.531 433.625 525.531C431.125 525.531 429.562 527.219 429.562 529.938V554.781C429.562 557.688 431.062 559.312 433.688 559.312C436.312 559.312 437.812 557.688 437.812 554.781V540.562C437.812 535.406 440.5 532.25 444.781 532.25C448.594 532.25 450.75 534.688 450.75 539.031V554.781C450.75 557.688 452.219 559.312 454.875 559.312C457.5 559.312 458.969 557.719 458.969 554.812Z" fill="black"/>
<path d="M193.777 419.764H390.496C416.16 419.764 429.675 406.643 429.675 380.948V371.518L361.555 307.009C355.821 301.68 348.722 299.082 341.623 299.082C334.388 299.082 327.971 301.406 321.829 306.872L262.444 359.354L238.691 338.171C233.093 333.113 227.223 330.517 220.944 330.517C215.073 330.517 209.613 333.25 204.016 338.034L154.461 380.948C154.461 406.643 168.112 419.764 193.777 419.764ZM251.796 310.29C268.997 310.29 283.058 295.939 283.058 278.855C283.058 261.771 268.997 247.694 251.796 247.694C234.595 247.694 220.671 261.771 220.671 278.855C220.671 295.939 234.595 310.29 251.796 310.29ZM191.866 423.59H392.134C420.529 423.59 435 409.376 435 381.223V240.861C435 212.706 420.529 198.493 392.134 198.493H191.866C163.198 198.493 149 212.706 149 240.861V381.223C149 409.376 163.198 423.59 191.866 423.59ZM192.139 401.585C178.487 401.585 170.979 394.206 170.979 379.992V242.091C170.979 227.877 178.487 220.497 192.139 220.497H391.725C405.24 220.497 413.021 227.877 413.021 242.091V379.992C413.021 394.206 405.24 401.585 391.725 401.585H192.139ZM177.805 176.488H406.332C404.284 164.051 398.414 157.218 384.762 157.218H199.374C185.723 157.218 179.852 164.051 177.805 176.488ZM205.927 138.631H378.21C377.39 127.014 370.837 121 358.141 121H225.858C213.299 121 206.746 127.014 205.927 138.631Z" fill="#AAB0B4"/>
</svg>
