<svg width="1000" height="3200" viewBox="0 0 1000 3200" fill="none" xmlns="http://www.w3.org/2000/svg">
<path d="M743.783 1464.76V1464.75C734.023 1404.37 719.887 1358.82 704.137 1308.08C694.533 1277.13 684.33 1244.26 674.153 1204.91C640.783 1075.84 660.373 1020.61 669.273 1003.97C669.273 1003.93 669.27 1003.88 669.268 1003.83C669.265 1003.78 669.263 1003.73 669.263 1003.69C669.89 1002.56 670.282 1001.39 670.482 1000.18C670.969 1000.17 671.456 1000.16 671.944 1000.15C672.104 1000.15 672.26 1000.15 672.417 1000.15C672.515 1000.15 672.614 1000.15 672.714 1000.14C672.724 1000.14 672.724 1000.13 672.734 1000.13L673.324 997.302C693.684 899.172 710.784 800.362 724.044 700.452C724.984 693.412 725.894 686.372 726.784 679.332C715.954 671.132 703.244 664.482 687.894 657.952C684.587 656.548 681.203 655.098 677.76 653.611C677.154 652.898 676.381 652.313 675.473 651.92C648.273 640.14 617.713 626.14 592.773 613.12C592.703 613.08 592.623 613.04 592.553 613C569.283 639.25 534.863 655.48 499.803 656.59C499.743 656.6 499.693 656.6 499.633 656.6C466.133 655.57 433.223 640.76 410.033 616.58C408.103 614.56 405.093 614.03 402.603 615.31C378.493 627.7 349.823 640.79 324.143 651.92C323.352 652.262 322.664 652.749 322.1 653.34C318.443 654.921 314.85 656.46 311.344 657.952C296.734 664.162 284.524 670.492 274.044 678.162C274.984 685.602 275.944 693.032 276.934 700.452C290.194 800.362 307.294 899.172 327.654 997.302L328.244 1000.13C328.249 1000.13 328.251 1000.13 328.254 1000.14C328.256 1000.14 328.259 1000.14 328.264 1000.14C328.552 1000.15 328.841 1000.15 329.13 1000.16C329.328 1001.37 329.722 1002.55 330.353 1003.69C330.353 1003.73 330.35 1003.78 330.348 1003.83C330.345 1003.88 330.343 1003.93 330.343 1003.97C339.243 1020.61 358.833 1075.84 325.463 1204.91C315.284 1244.28 305.078 1277.16 295.473 1308.12C280.391 1356.72 266.788 1400.55 257.093 1457.22C256.423 1461.12 259.473 1464.66 263.433 1464.6H263.513C266.073 1464.55 268.633 1464.51 271.203 1464.47C293.665 1464.15 316.442 1464.18 339.446 1464.22C365.323 1464.26 391.486 1464.3 417.813 1463.83C423.523 1463.73 429.243 1463.6 434.963 1463.45C440.593 1463.29 446.233 1463.11 451.873 1462.9C455.903 1462.75 459.923 1462.62 463.953 1462.5C467.983 1462.39 472.013 1462.3 476.043 1462.22C491.893 1461.92 507.733 1461.92 523.583 1462.22C527.613 1462.3 531.643 1462.39 535.673 1462.5C539.613 1462.62 543.553 1462.75 547.483 1462.9C553.223 1463.12 558.943 1463.3 564.663 1463.45C570.393 1463.61 576.103 1463.73 581.813 1463.83C608.133 1464.3 634.295 1464.26 660.171 1464.22C683.176 1464.18 705.955 1464.15 728.423 1464.47C730.993 1464.51 733.563 1464.55 736.123 1464.6C737.446 1464.63 738.766 1464.65 740.085 1464.68C741.318 1464.7 742.55 1464.73 743.783 1464.76Z" fill="white"/>
</svg>
