<svg width="988" height="988" viewBox="0 0 988 988" fill="none" xmlns="http://www.w3.org/2000/svg">
<path d="M685.858 670.955C682.135 712.272 679.483 748.58 677.603 781H549.933C546.829 745.515 542.705 711.886 537.124 683.121C514.428 566.167 508.861 426.294 508.861 426.294C508.861 426.294 506.58 426.621 498.638 426.621C497.356 426.621 495.6 427.364 494.143 426.752C492.685 427.364 491.651 426.621 490.368 426.621C482.419 426.621 480.139 426.294 480.139 426.294C480.139 426.294 474.572 566.167 451.875 683.121C446.294 711.886 442.177 745.515 439.073 781H311.397C309.517 748.58 306.865 712.272 303.141 670.955C283.075 448.339 328.221 259.759 328.221 259.759C336.789 225.221 347.704 206 347.704 206H641.303C641.303 206 652.21 225.221 660.786 259.759C660.786 259.759 705.924 448.339 685.858 670.955Z" fill="black"/>
</svg>
