<svg width="1000" height="3200" viewBox="0 0 1000 3200" fill="none" xmlns="http://www.w3.org/2000/svg">
<path d="M880.116 2862.57C755.546 2884.25 624.835 2894.96 496.165 2891.82H496.106C367.466 2895.48 247.846 2884.25 123.266 2862.57C117.286 2659.99 214.106 2413.68 230.936 2214.78C238.656 2123.66 237.076 2070.12 237.076 1978.68C237.076 1900.83 236.816 1764.09 234.076 1655.15C230.806 1524.77 275.266 1380.05 297.706 1301H701.675C724.115 1380.05 771.575 1524.77 768.295 1655.15C765.565 1764.09 763.295 1900.83 763.295 1978.68C763.295 2070.12 757.725 2123.66 765.435 2214.78C782.275 2413.68 886.096 2659.99 880.116 2862.57Z" fill="white"/>
</svg>
