<svg width="584" height="779" viewBox="0 0 584 779" fill="none" xmlns="http://www.w3.org/2000/svg">
<rect width="584" height="779" rx="24" fill="#EAEFF3"/>
<path d="M155.656 521.312C158.312 521.312 159.844 519.625 159.844 516.75V482.594C159.844 479.719 158.281 478.031 155.625 478.031C152.938 478.031 151.406 479.719 151.406 482.594V516.75C151.406 519.625 152.969 521.312 155.656 521.312Z" fill="black"/>
<path d="M216.094 516.781V497.844C216.094 491.281 212.094 487.312 205.406 487.312C200.625 487.312 196.875 489.719 195.438 493.562H195.062C193.969 489.688 190.594 487.312 185.938 487.312C181.438 487.312 177.969 489.625 176.875 493.344H176.469V491.781C176.344 489.125 174.875 487.531 172.469 487.531C169.969 487.531 168.406 489.219 168.406 491.969V516.781C168.406 519.719 169.906 521.312 172.531 521.312C175.156 521.312 176.656 519.719 176.656 516.781V500.75C176.656 496.719 179 494.125 182.5 494.125C186.062 494.125 188.281 496.531 188.281 500.469V516.781C188.281 519.719 189.688 521.312 192.25 521.312C194.844 521.312 196.25 519.719 196.25 516.781V500.781C196.25 496.781 198.656 494.125 202.188 494.125C205.75 494.125 207.875 496.375 207.875 500.312V516.781C207.875 519.719 209.344 521.312 211.969 521.312C214.594 521.312 216.094 519.719 216.094 516.781Z" fill="black"/>
<path d="M242.312 516.781H242.719V517.938C242.969 520.094 244.406 521.312 246.594 521.312C249.156 521.312 250.594 519.719 250.594 516.906V498.781C250.594 491.438 245.719 487.312 237.031 487.312C233.406 487.312 230.625 487.938 228.531 489.031C225.625 490.5 224.281 492.469 224.281 494.406C224.281 496.094 225.406 497.312 227.219 497.312C228.562 497.312 229.438 496.969 230.375 496.219C232.219 494.562 234 493.625 236.5 493.625C240.281 493.625 242.375 495.375 242.375 498.719V501.438H234.5C226.969 501.438 222.438 505.219 222.438 511.344C222.438 517.375 226.812 521.438 233.281 521.438C237.344 521.438 240.625 519.75 242.312 516.781ZM230.625 510.844C230.625 508.125 232.625 506.5 236 506.5H242.375V509.938C242.375 513.062 239.594 515.5 236.031 515.5C232.812 515.5 230.625 513.594 230.625 510.844Z" fill="black"/>
<path d="M278.938 515.219H279.375V519.594C279.375 524.406 276.75 526.875 271.938 526.875C268.344 526.875 266.344 525.531 264.938 524.562C263.875 523.781 263.062 523.125 261.75 523.125C259.688 523.125 258.375 524.406 258.375 526.281C258.375 528.281 259.812 530.094 261.969 531.312C264.375 532.688 267.844 533.438 272.062 533.438C281.438 533.438 287.562 528.969 287.562 520.062V492C287.562 489.031 286.031 487.438 283.469 487.438C281.156 487.438 279.625 488.781 279.5 491.438V492.844H279.094C277.938 489.844 274.5 487.312 269.562 487.312C262.281 487.312 257.094 492.781 257.094 502.031V505.719C257.094 515 262.281 520.406 269.625 520.406C274.281 520.406 277.688 518.188 278.938 515.219ZM265.562 505.438V502.719C265.562 497.375 268.219 493.906 272.5 493.906C276.906 493.906 279.344 497.562 279.344 502.156V506.062C279.344 510.562 276.969 514.219 272.594 514.219C268.375 514.219 265.562 510.75 265.562 505.438Z" fill="black"/>
<path d="M294.562 506.594C294.562 516 300.562 521.719 310.281 521.719C314.562 521.719 318.344 520.594 320.531 518.75C322.094 517.625 323 516.219 323 514.75C323 512.938 321.812 511.75 320.094 511.75C318.812 511.75 318.25 512.219 316.656 513.438C315.188 514.656 313.375 515.281 310.812 515.281C305.906 515.281 302.969 512.312 302.938 507.688V506.25H319.719C322.812 506.25 323.875 505.031 323.875 501.312C323.875 493.125 317.906 487.125 309.469 487.125C300.562 487.125 294.562 493.25 294.562 502.312V506.594ZM302.938 501.031V500.969C302.938 496.5 305.531 493.5 309.594 493.5C313.5 493.5 316 496.438 316 500.969V501.031H302.938Z" fill="black"/>
<path d="M372.625 516.812V498.781C372.625 491.5 368.625 487.312 361.562 487.312C356.688 487.312 352.969 489.75 351.688 493.688H351.281V491.656C351.188 489 349.75 487.531 347.281 487.531C344.781 487.531 343.219 489.219 343.219 491.938V516.781C343.219 519.688 344.719 521.312 347.344 521.312C349.969 521.312 351.469 519.688 351.469 516.781V502.562C351.469 497.406 354.156 494.25 358.438 494.25C362.25 494.25 364.406 496.688 364.406 501.031V516.781C364.406 519.688 365.875 521.312 368.531 521.312C371.156 521.312 372.625 519.719 372.625 516.812Z" fill="black"/>
<path d="M394.375 487.125C385.312 487.125 379.062 492.844 379.062 502.406V506.312C379.062 516.125 385.312 521.719 394.375 521.719C403.406 521.719 409.656 516.125 409.656 506.281V502.375C409.656 492.844 403.406 487.125 394.375 487.125ZM394.375 493.531C398.656 493.531 401.188 496.969 401.188 502.562V506.25C401.188 511.906 398.656 515.312 394.375 515.312C390.156 515.312 387.531 511.906 387.531 506.25V502.562C387.531 496.969 390.156 493.531 394.375 493.531Z" fill="black"/>
<path d="M418.844 512.125C418.844 518.906 421.688 521.656 428.219 521.656C430.469 521.656 432.156 521.281 433.312 520.531C434.469 519.844 435 518.812 435 517.594C435 516.062 434 515.094 432.562 515.094C431.812 515.094 431.25 515.219 430.375 515.219C427.906 515.219 427.094 514.219 427.094 511.219V494.531H430.312C432.562 494.531 433.844 493.312 433.844 491.312C433.844 489.312 432.562 488.094 430.312 488.094H427.031V483.781C427.031 480.938 425.562 479.344 423 479.344C420.469 479.344 419 480.938 419 483.781V488.094H417.156C414.938 488.094 413.656 489.312 413.656 491.312C413.656 493.312 414.938 494.531 417.156 494.531H418.844V512.125Z" fill="black"/>
<path d="M205.969 592.781V570.312H209.438C211.688 570.312 212.969 569.125 212.969 567.125C212.969 565.094 211.688 563.906 209.438 563.906H205.812V560.969C205.812 558.312 206.938 557.219 209.031 557.219C210.219 557.219 210.688 557.375 211.781 557.375C213.25 557.375 214.219 556.375 214.219 554.812C214.219 553.75 213.688 552.875 212.719 552.219C211.688 551.562 210.094 551.188 208.062 551.188C201.188 551.188 197.75 554.25 197.75 561.281V563.906H195.875C193.656 563.906 192.375 565.094 192.375 567.125C192.375 569.156 193.656 570.312 195.875 570.312H197.75V592.781C197.75 595.688 199.25 597.312 201.875 597.312C204.5 597.312 205.969 595.688 205.969 592.781Z" fill="black"/>
<path d="M231.781 563.125C222.719 563.125 216.469 568.844 216.469 578.406V582.312C216.469 592.125 222.719 597.719 231.781 597.719C240.812 597.719 247.062 592.125 247.062 582.281V578.375C247.062 568.844 240.812 563.125 231.781 563.125ZM231.781 569.531C236.062 569.531 238.594 572.969 238.594 578.562V582.25C238.594 587.906 236.062 591.312 231.781 591.312C227.562 591.312 224.938 587.906 224.938 582.25V578.562C224.938 572.969 227.562 569.531 231.781 569.531Z" fill="black"/>
<path d="M274.312 591.469H274.75V593.25C274.844 595.969 276.375 597.312 278.75 597.312C281.156 597.312 282.812 595.781 282.812 592.938V568C282.812 565 281.219 563.531 278.688 563.531C276.125 563.531 274.562 565 274.562 568V583.844C274.562 587.75 271.844 590.594 267.594 590.594C264.312 590.594 261.688 588.844 261.688 584.219V568C261.688 565 260.125 563.531 257.594 563.531C255.031 563.531 253.469 565 253.469 568V586.312C253.469 594 257.938 597.438 264.375 597.438C270.031 597.438 273.25 594.531 274.312 591.469Z" fill="black"/>
<path d="M320.281 592.812V574.781C320.281 567.5 316.281 563.312 309.219 563.312C304.344 563.312 300.625 565.75 299.344 569.688H298.938V567.656C298.844 565 297.406 563.531 294.938 563.531C292.438 563.531 290.875 565.219 290.875 567.938V592.781C290.875 595.688 292.375 597.312 295 597.312C297.625 597.312 299.125 595.688 299.125 592.781V578.562C299.125 573.406 301.812 570.25 306.094 570.25C309.906 570.25 312.062 572.688 312.062 577.031V592.781C312.062 595.688 313.531 597.312 316.188 597.312C318.812 597.312 320.281 595.719 320.281 592.812Z" fill="black"/>
<path d="M349 591.719H349.406V593.281C349.562 595.844 351.031 597.312 353.438 597.312C356.062 597.312 357.5 595.688 357.5 592.781V556.406C357.5 553.5 356 551.844 353.375 551.844C350.719 551.844 349.25 553.5 349.25 556.406V568.781H348.844C347.562 565.375 344 563.312 339.375 563.312C331.719 563.312 326.906 568.875 326.906 577.844V582.906C326.906 591.844 331.688 597.438 339.281 597.438C344.031 597.438 347.938 595.125 349 591.719ZM335.375 582.062V578.719C335.375 573.219 337.875 569.906 342.125 569.906C346.344 569.906 349.25 573.188 349.25 578V582.406C349.25 587.625 346.531 590.875 342.25 590.875C337.906 590.875 335.375 587.594 335.375 582.062Z" fill="black"/>
<path d="M379.375 579.562C379.438 581.594 381.062 583.125 383.125 583.125C385.125 583.125 386.719 581.656 386.812 579.562L387.562 557.531C387.656 555.094 385.719 553.125 383.125 553.125C380.531 553.125 378.625 555.094 378.719 557.531L379.375 579.562ZM378.375 593.219C378.375 595.812 380.5 597.625 383.094 597.625C385.719 597.625 387.844 595.812 387.844 593.219C387.844 590.625 385.719 588.812 383.094 588.812C380.5 588.812 378.375 590.625 378.375 593.219Z" fill="black"/>
<path d="M169.734 393.068H418.732C445.372 393.068 461 377.607 461 346.981V194.295C461 163.669 445.225 148.207 414.266 148.207H271.387C261.266 148.207 255.164 145.828 247.722 139.435L238.644 132.002C228.821 123.676 221.23 121 206.496 121H164.078C138.032 121 123 135.867 123 165.75V346.981C123 377.754 138.627 393.068 169.734 393.068ZM170.031 369.132C155.148 369.132 146.962 361.252 146.962 345.79V167.088C146.962 152.37 154.702 144.787 168.99 144.787H200.393C210.216 144.787 216.17 147.315 223.76 153.708L232.839 161.29C242.513 169.318 250.401 172.143 265.136 172.143H413.82C428.554 172.143 437.039 180.171 437.039 195.633V345.939C437.039 361.252 428.554 369.132 413.82 369.132H170.031ZM289.396 298.365C296.392 298.365 300.558 293.904 300.558 288.553C300.558 287.958 300.558 287.362 300.558 286.769C300.558 279.038 305.024 274.28 314.697 267.887C328.092 258.967 337.617 250.939 337.617 234.436C337.617 211.541 317.227 199.201 293.712 199.201C270.047 199.201 254.42 210.351 250.55 222.988C249.806 225.367 249.36 227.448 249.36 229.827C249.36 236.071 254.271 239.342 258.885 239.342C263.648 239.342 266.624 237.261 269.154 233.841L271.536 230.571C276.448 222.542 283.74 217.934 292.819 217.934C305.47 217.934 313.656 225.07 313.656 235.477C313.656 244.843 307.851 249.452 295.646 257.926C285.824 264.765 278.382 272.05 278.382 285.578C278.382 286.173 278.382 286.769 278.382 287.362C278.382 294.647 282.401 298.365 289.396 298.365ZM289.097 339.547C297.135 339.547 303.981 333.153 303.981 325.125C303.981 317.098 297.283 310.853 289.097 310.853C281.061 310.853 274.215 317.245 274.215 325.125C274.215 333.005 281.21 339.547 289.097 339.547Z" fill="#AAB0B4"/>
</svg>
