<svg width="1000" height="3200" viewBox="0 0 1000 3200" fill="none" xmlns="http://www.w3.org/2000/svg">
<path d="M903.896 3043.61C902.906 3047.65 901.086 3051.35 896.726 3051.3C827.096 3050.39 762.466 3049.47 692.836 3048.56C667.306 3048.23 641.696 3047.9 616.396 3044.5C609.366 3033.89 609.496 3020.43 615.156 3009.7C616.596 3009.7 618.046 3009.71 619.486 3009.72C746.236 3026.05 789.976 3023.73 897.226 3028.41C898.286 3028.31 899.296 3028.63 900.186 3029.21C901.286 3029.86 902.236 3030.86 902.996 3031.91C905.446 3035.31 904.886 3039.57 903.896 3043.61Z" fill="#515151"/>
<path d="M898.266 3029.12C897.376 3028.54 896.365 3028.22 895.305 3028.32C788.585 3028.32 730.665 3024.2 617.565 3009.63C621.065 2995.79 623.315 2982.45 633.305 2970.96C683.655 2977.07 708.625 2980 759.815 2980.32C760.005 2980.33 760.196 2980.32 760.396 2980.33C761.846 2974.32 764.195 2968.51 767.965 2963C780.025 2966.52 791.975 2970.39 803.805 2974.59C822.785 2981.34 850.465 2988.96 868.745 2997.44C877.845 3001.66 887.175 3006.33 893.425 3014.15C896.155 3017.59 898.245 3021.71 898.465 3026.08C898.515 3027.09 898.446 3028.12 898.266 3029.12Z" fill="white"/>
<path d="M803.805 2974.59C801.785 2982.71 799.195 2990.69 796.095 2998.47C783.315 2996.99 770.686 2994.25 757.646 2990.29C758.136 2986.93 758.865 2983.6 759.815 2980.32C760.005 2980.33 760.196 2980.32 760.396 2980.33C761.846 2974.32 764.195 2968.51 767.965 2963C780.025 2966.53 791.975 2970.39 803.805 2974.59Z" fill="#515151"/>
<path d="M96.8357 3043.61C97.8257 3047.65 99.6457 3051.35 104.006 3051.3C173.636 3050.39 238.266 3049.47 307.896 3048.56C333.426 3048.23 359.036 3047.9 384.336 3044.5C391.366 3033.89 391.236 3020.43 385.576 3009.7C384.136 3009.7 382.686 3009.71 381.246 3009.72C254.496 3026.05 210.756 3023.73 103.506 3028.41C102.446 3028.31 101.436 3028.63 100.546 3029.21C99.4457 3029.86 98.4957 3030.86 97.7357 3031.91C95.2957 3035.31 95.8557 3039.57 96.8357 3043.61Z" fill="#515151"/>
<path d="M102.466 3029.12C103.356 3028.54 104.366 3028.22 105.426 3028.32C212.146 3028.32 270.066 3024.2 383.166 3009.63C379.666 2995.79 377.416 2982.45 367.426 2970.96C317.076 2977.07 292.106 2980 240.916 2980.32C240.726 2980.33 240.536 2980.32 240.336 2980.33C238.886 2974.32 236.536 2968.51 232.766 2963C220.706 2966.52 208.756 2970.39 196.926 2974.59C177.946 2981.34 150.266 2988.96 131.986 2997.44C122.886 3001.66 113.556 3006.33 107.306 3014.15C104.576 3017.59 102.486 3021.71 102.266 3026.08C102.216 3027.09 102.286 3028.12 102.466 3029.12Z" fill="white"/>
<path d="M196.926 2974.59C198.946 2982.71 201.536 2990.69 204.636 2998.47C217.416 2996.99 230.046 2994.25 243.086 2990.29C242.596 2986.93 241.866 2983.6 240.916 2980.32C240.726 2980.33 240.536 2980.32 240.336 2980.33C238.886 2974.32 236.536 2968.51 232.766 2963C220.706 2966.53 208.766 2970.39 196.926 2974.59Z" fill="#515151"/>
</svg>
