<svg width="988" height="988" viewBox="0 0 988 988" fill="none" xmlns="http://www.w3.org/2000/svg">
<path d="M884.492 838.694C884.389 838.657 884.287 838.61 884.184 838.573C899.604 819.464 896.213 791.856 891.842 767.685C863.077 608.52 826.755 450.821 790.452 293.197C776.648 233.265 763.918 164.507 717.93 123.674C680.077 90.0609 628.317 114.979 591.79 121.236C573.325 124.393 558.251 126.046 544.251 130.053C542.038 135.321 539.535 140.439 536.359 145.174C532.371 151.123 527.178 156.475 520.996 159.996C561.819 425.884 573.559 696.405 553.759 969C592.593 966.525 625.711 963.05 640.206 962.173C706.377 958.157 736.936 959.735 750.936 924.842C762.788 895.283 756.344 838.199 738.561 820.5C737.394 819.324 736.18 818.324 734.909 817.521C723.805 773.56 706.582 712.675 711.448 667.583C761.35 865.321 767.813 833.921 784.652 854.581C784.232 855.001 783.83 855.44 783.447 855.888C772.184 869.076 776.097 894.685 782.037 908.227C788.192 922.246 794.02 929.848 809.234 931.511C824.448 933.173 849.982 930.829 864.216 925.197C882.307 918.034 893.935 920.07 902.648 902.67C911.306 885.373 902.452 845.979 884.492 838.694Z" fill="black"/>
<path d="M902.649 902.67C893.935 920.07 882.307 918.034 864.216 925.198C849.983 930.829 824.448 933.174 809.234 931.511C794.02 929.849 788.192 922.246 782.037 908.227C776.097 894.685 772.184 869.076 783.448 855.888C805.881 851.564 827.904 845.176 850.45 841.515C861.657 839.694 873.126 838.564 884.492 838.694C902.452 845.979 911.306 885.374 902.649 902.67Z" fill="#3D3D3D"/>
<path d="M750.936 924.842C736.936 959.735 706.377 958.157 640.206 962.173C639.524 962.21 638.805 962.257 638.049 962.313C637.544 962.35 637.012 962.388 636.47 962.425C635.788 962.472 635.079 962.528 634.341 962.584C633.911 962.621 633.472 962.649 633.024 962.686C630.894 962.855 628.56 963.051 626.047 963.265C625.459 963.312 624.852 963.359 624.245 963.415C618.912 963.872 612.813 964.414 606.107 964.984C604.239 965.152 602.325 965.311 600.363 965.479C586.643 966.646 570.747 967.917 553.759 969C557.812 913.252 560.539 857.579 561.968 802.027C607.237 803.624 653.225 807.098 703.556 812.73C715.334 814.047 727.886 815.765 738.561 820.501C756.344 838.199 762.788 895.283 750.936 924.842Z" fill="#3D3D3D"/>
<path d="M520.127 159.8C541.729 116.856 566.199 75.1177 593.359 34.9201C597.272 29.1296 601.662 23.0308 608.526 20.4344C614.485 18.1742 621.256 18.9775 627.57 20.1729C647.22 23.8901 666.086 31.0629 682.851 41.187C689.117 44.9695 695.235 49.3217 699.045 55.243C702.856 61.1737 703.921 69.0002 699.867 75.0616C703.995 72.9789 709.188 73.3712 713.512 75.071C717.846 76.7708 721.488 79.638 725.019 82.4959C732.5 88.576 739.785 94.8522 746.855 101.325C753.243 107.171 759.799 113.793 760.799 122.021C762.004 131.912 754.448 141.307 744.977 146.164C735.507 151.02 724.412 152.281 713.634 153.421C675.612 157.427 637.544 161.042 599.476 164.647C589.782 165.562 580.078 166.487 570.327 166.571C561.38 166.646 552.442 166.02 543.523 165.394C534.202 164.722 524.871 164.068 520.127 159.8Z" fill="#3D3D3D"/>
<path d="M541.561 159.753C544.102 169.569 552.031 177.442 553.983 187.389C569.048 226.895 583.916 265.897 594.124 306.254C604.286 346.405 609.768 388.124 605.65 429.331C609.75 429.452 613.84 429.994 617.828 430.984C624.469 337.149 588.81 245.434 553.768 157.287C552.563 154.271 550.481 152.982 548.538 152.123C546.595 151.263 544.083 151.291 542.561 152.786C540.777 154.495 540.945 157.362 541.561 159.753Z" fill="#B7B7B7"/>
<path d="M583.963 476.561C585.532 479.736 588.913 481.567 592.238 482.753C599.037 485.181 606.341 485.732 613.542 485.919C616.521 485.994 619.706 485.947 622.153 484.247C624.226 482.818 625.394 480.437 626.402 478.139C631.885 465.549 634.696 451.801 631.95 436.456C627.504 434.009 622.741 432.17 617.829 430.974C613.841 429.993 609.75 429.442 605.65 429.321C601.447 429.19 597.244 429.517 593.126 430.311C591.51 430.619 589.791 431.067 588.699 432.3C587.774 433.346 587.466 434.794 587.195 436.167C585.122 446.749 583.73 457.452 583.02 468.211C582.815 471.041 582.702 474.011 583.963 476.561Z" fill="#3D3D3D"/>
<path d="M466.91 167.094C427.17 429.405 415.72 696.209 434.959 965.031C435.044 966.357 435.146 967.674 435.24 969C396.406 966.525 363.288 963.05 348.792 962.173C282.612 958.157 252.062 959.735 238.062 924.842C226.21 895.283 232.645 838.199 250.437 820.5C251.605 819.324 252.819 818.324 254.08 817.521C265.194 773.56 282.416 712.675 277.55 667.583C227.649 865.321 221.176 833.921 204.337 854.581C204.767 855.001 205.168 855.44 205.542 855.888C216.815 869.076 212.902 894.685 206.952 908.227C200.807 922.246 194.979 929.848 179.765 931.511C164.551 933.173 139.007 930.829 124.773 925.197C106.692 918.034 95.064 920.07 86.3502 902.67C77.6924 885.373 86.5462 845.979 104.506 838.694C104.609 838.657 104.712 838.61 104.815 838.573C89.3949 819.464 92.7757 791.856 97.156 767.685C125.913 608.52 162.244 450.821 198.537 293.197C212.35 233.265 225.08 164.507 271.068 123.674C308.922 90.0609 360.682 114.979 397.199 121.236C415.664 124.393 430.747 126.046 444.747 130.053C446.951 135.321 449.464 140.439 452.639 145.174C456.627 151.123 461.82 156.475 467.994 159.996C467.629 162.359 467.265 164.731 466.91 167.094Z" fill="black"/>
<path d="M86.3502 902.67C95.064 920.07 106.692 918.034 124.783 925.198C139.016 930.829 164.551 933.174 179.765 931.511C194.979 929.849 200.807 922.246 206.962 908.227C212.902 894.685 216.815 869.076 205.551 855.888C183.118 851.564 161.095 845.176 138.549 841.515C127.342 839.694 115.873 838.564 104.506 838.694C86.5462 845.979 77.6924 885.374 86.3502 902.67Z" fill="#3D3D3D"/>
<path d="M238.062 924.842C252.062 959.735 282.622 958.157 348.793 962.173C349.474 962.21 350.193 962.257 350.95 962.313C351.454 962.35 351.987 962.388 352.528 962.425C353.21 962.472 353.92 962.528 354.658 962.584C355.087 962.621 355.526 962.649 355.975 962.686C358.104 962.855 360.439 963.051 362.951 963.265C363.54 963.312 364.147 963.359 364.754 963.415C370.087 963.872 376.186 964.414 382.891 964.984C384.759 965.152 386.674 965.311 388.635 965.479C402.355 966.646 418.251 967.917 435.24 969C431.186 913.252 428.459 857.579 427.03 802.027C381.761 803.624 335.773 807.098 285.442 812.73C273.665 814.047 261.113 815.765 250.437 820.501C232.655 838.199 226.211 895.283 238.062 924.842Z" fill="#3D3D3D"/>
<path d="M468.872 159.8C447.269 116.856 422.799 75.1177 395.64 34.9201C391.727 29.1296 387.337 23.0308 380.472 20.4344C374.514 18.1742 367.742 18.9775 361.429 20.1729C341.778 23.8901 322.913 31.0629 306.148 41.187C299.881 44.9695 293.764 49.3217 289.953 55.243C286.143 61.1643 285.078 69.0002 289.131 75.0616C285.003 72.9789 279.81 73.3712 275.486 75.071C271.162 76.7708 267.51 79.638 263.98 82.4959C256.499 88.576 249.214 94.8522 242.144 101.325C235.755 107.171 229.199 113.793 228.2 122.021C226.995 131.912 234.551 141.307 244.021 146.164C253.491 151.02 264.587 152.281 275.365 153.421C313.386 157.427 351.454 161.042 389.522 164.647C399.217 165.562 408.921 166.487 418.671 166.571C427.619 166.646 436.557 166.02 445.476 165.394C454.797 164.722 464.118 164.068 468.872 159.8Z" fill="#3D3D3D"/>
<path d="M447.437 159.753C444.897 169.569 436.968 177.442 435.016 187.389C419.951 226.895 405.082 265.897 394.874 306.254C384.713 346.405 379.23 388.124 383.349 429.331C379.249 429.452 375.158 429.994 371.17 430.984C364.53 337.149 400.188 245.434 435.23 157.287C436.435 154.271 438.518 152.982 440.461 152.123C442.403 151.263 444.915 151.291 446.438 152.786C448.212 154.495 448.054 157.362 447.437 159.753Z" fill="#B7B7B7"/>
<path d="M405.035 476.561C403.466 479.736 400.085 481.567 396.76 482.753C389.961 485.181 382.657 485.732 375.457 485.919C372.477 485.994 369.293 485.947 366.846 484.247C364.772 482.818 363.605 480.437 362.596 478.139C357.114 465.549 354.303 451.801 357.048 436.456C361.494 434.009 366.257 432.17 371.17 430.974C375.158 429.993 379.249 429.442 383.349 429.321C387.551 429.19 391.754 429.517 395.873 430.311C397.489 430.619 399.207 431.067 400.3 432.3C401.225 433.346 401.533 434.794 401.804 436.167C403.877 446.749 405.269 457.452 405.978 468.211C406.175 471.041 406.287 474.011 405.035 476.561Z" fill="#3D3D3D"/>
<path d="M472.561 278.599C446.961 453.006 439.265 630.029 447.447 807.817C451.014 859.643 451.808 911.655 449.8 963.555C444.869 964.928 439.91 965.339 434.96 965.031C415.72 696.209 427.17 429.405 466.91 167.094C474.102 181.421 477.455 197.765 478.174 213.885C479.136 235.553 475.708 257.146 472.561 278.599Z" fill="#3D3D3D"/>
</svg>
