<svg width="1000" height="3200" viewBox="0 0 1000 3200" fill="none" xmlns="http://www.w3.org/2000/svg">
<path d="M904.03 1546.61C899.61 1548.97 895.03 1550.98 890.21 1552.44C880.72 1555.33 870.06 1555.73 860.77 1552.68C838.48 1477.96 779.72 1278.65 761.2 1192.33C749.32 1136.93 709.6 1069.48 674.17 998.39C674.17 998.39 669.05 1004.29 664.33 1019.16C664.23 1018.8 664.13 1018.43 664.03 1018.07C655.28 1044.1 647.12 1100.28 674.43 1205.92C701.29 1309.81 728.34 1368.56 744.05 1465.77C680.64 1464.32 614.5 1466.45 547.69 1463.91C515.83 1462.7 483.94 1462.7 452.08 1463.91C385.29 1466.45 319.19 1464.32 255.78 1465.77C271.49 1368.56 298.54 1309.81 325.4 1205.92C358.77 1076.85 339.18 1021.62 330.28 1004.98C330.28 1004.89 330.29 1004.79 330.29 1004.7C329.5 1003.28 329.09 1001.8 328.96 1000.27C328.1 998.98 327.58 998.39 327.58 998.39C292.15 1069.48 252.43 1136.93 240.54 1192.33C222.83 1274.92 168.27 1460.96 144.07 1542.32C134.89 1545.19 124.43 1544.76 115.11 1541.92C109.46 1540.2 104.13 1537.74 99 1534.83C111.94 1418.54 137.22 1278.97 153.78 1165.71C170.38 1052.2 183.96 941.52 203.65 845.08C203.42 844.85 203.2 844.61 202.97 844.38C205.14 833.77 207.39 823.34 209.73 813.09C233.41 709.36 253.71 682.89 311.61 658.28C341.67 645.5 378.12 629.1 407 614C430.31 640.29 464.8 656.53 499.92 657.6C535.04 656.52 569.53 640.29 592.83 614C621.71 629.1 658.16 645.5 688.22 658.28C727.77 675.09 749.78 692.77 767.3 735.35C767.73 735.36 768.15 735.38 768.58 735.4C776.56 755.02 783.63 779.89 791.03 812.29C814.7 916.02 829.45 1039.11 847.96 1165.71C865.09 1282.82 891.54 1428.06 904.03 1546.61Z" fill="white"/>
</svg>
