<svg width="1000" height="3200" viewBox="0 0 1000 3200" fill="none" xmlns="http://www.w3.org/2000/svg">
<path d="M762.316 1945.63C734.776 2251.41 750.086 2357.67 741.796 2503.82C733.496 2649.97 712.036 2886.56 712.036 2886.56L636.026 2885.2C636.026 2885.2 598.596 2601.57 592.976 2497.85C587.346 2394.14 589.336 2122.97 558.186 1962.34C527.036 1801.7 519.396 1609.58 519.396 1609.58C519.396 1609.58 516.266 1610.03 505.366 1610.03C503.606 1610.03 501.196 1611.05 499.196 1610.21C497.196 1611.05 495.776 1610.03 494.016 1610.03C483.106 1610.03 479.976 1609.58 479.976 1609.58C479.976 1609.58 472.336 1801.7 441.186 1962.34C410.036 2122.97 412.026 2394.14 406.406 2497.85C400.776 2601.57 363.346 2885.2 363.346 2885.2L287.336 2886.56C287.336 2886.56 265.876 2649.97 257.586 2503.82C249.286 2357.67 264.596 2251.41 237.056 1945.63C209.516 1639.86 271.476 1380.84 271.476 1380.84C283.236 1333.4 298.216 1307 298.216 1307H701.166C701.166 1307 716.136 1333.4 727.906 1380.84C727.906 1380.84 789.856 1639.86 762.316 1945.63Z" fill="white"/>
</svg>
