<svg width="988" height="988" viewBox="0 0 988 988" fill="none" xmlns="http://www.w3.org/2000/svg">
<path d="M90.1443 830.557C91.6416 830.807 93.1111 831.056 94.6083 831.306C375.898 868.099 546.169 852.433 888.818 837.1C889.428 836.49 890.01 835.88 890.564 835.243C898.272 804.826 905.176 781.924 900.324 759.715C898.827 752.672 896.11 745.712 891.867 738.586C890.148 735.814 888.401 733.069 886.488 730.435C878.642 497.113 873.817 394.718 873.817 135C735.1 137.745 637.196 135.943 495.068 136.941C495.068 378.22 491.242 382.795 491.242 516.744C364.53 574.388 237.845 631.311 111.189 688.235C94.5251 713.605 85.1535 743.051 83.5453 772.913V773.024C82.4363 792.405 84.6267 811.952 90.1443 830.557Z" fill="black"/>
<path d="M88.8688 830.557C90.782 830.806 92.695 831.056 94.6082 831.306C375.897 868.099 546.168 852.433 888.817 837.1C889.427 836.49 890.01 835.88 890.564 835.243C908.808 815.307 909.252 785.695 900.324 759.715C897.801 752.256 894.473 745.13 890.592 738.586C822.55 730.157 753.538 734.095 685.08 737.976C500.419 748.568 315.73 759.16 131.014 769.779C115.292 770.666 99.4049 771.637 83.5452 772.913C83.1293 772.94 82.6857 772.996 82.2698 773.024C81.1885 792.405 83.3512 811.952 88.8688 830.557Z" fill="#3D3D3D"/>
</svg>
